<?xml version="1.0" encoding="UTF-8"?>
<!DOCTYPE svg PUBLIC "-//W3C//DTD SVG 1.1//EN" "http://www.w3.org/Graphics/SVG/1.1/DTD/svg11.dtd">
<!-- Creator: CorelDRAW 2019 (64-Bit) -->
<svg xmlns="http://www.w3.org/2000/svg" xml:space="preserve" width="53.5092mm" height="32.5966mm" version="1.1" style="shape-rendering:geometricPrecision; text-rendering:geometricPrecision; image-rendering:optimizeQuality; fill-rule:evenodd; clip-rule:evenodd"
viewBox="0 0 5350.92 3259.66"
 xmlns:xlink="http://www.w3.org/1999/xlink"
 xmlns:xodm="http://www.corel.com/coreldraw/odm/2003">
 <defs>
  <style type="text/css">
   <![CDATA[
    .fil1 {fill:#976BAB}
    .fil0 {fill:#976BAB;fill-rule:nonzero}
   ]]>
  </style>
 </defs>
 <g id="Слой_x0020_1">
  <metadata id="CorelCorpID_0Corel-Layer"/>
  <path class="fil0" d="M4754.46 3188.91l0 -344.31 64.74 0 162.04 208.07 158.91 -208.07 64.06 0 0 344.31 -74.06 0 0 -212.99c0,-6.12 0.22,-11.2 0.66,-15.21 0.56,-5.37 1.23,-12.47 1.89,-21.37 -2.23,4.23 -4.33,8.35 -6.23,12.25 -1.89,3.99 -3.55,7.23 -5.11,9.78 -3.57,6.55 -6.45,11.23 -8.68,14l-129.44 172.19 -16.03 0 -129.33 -172.85c-4.12,-5.35 -8.13,-11.59 -12.02,-18.8 -4.22,-6.45 -7.11,-12.01 -8.67,-16.57 0.66,7.24 1.34,13.9 2.01,20.03l0 16.55 0 212.99 -64.74 0zm-491.22 0l0 0 0 -64.74 196.85 0 111.42 0 0 -56.72 -222.86 0c-33.36,0 -55.83,-5.77 -67.5,-17.44 -11.91,-11.24 -17.91,-32.6 -17.91,-63.95l0 -141.46 80.08 0 0 163.48 228.19 0 0 -163.48 80.09 0 0 262.91c0,31.24 -5.78,52.59 -17.24,64.17 -12.46,11.43 -35.15,17.23 -68.18,17.23l-112.1 0 -105.43 0 -85.41 0zm-120.01 0l0 0 0 -344.31 -54.72 0 -242.21 202.94c-10.02,7.82 -17.36,14.02 -21.91,18.6 -4.45,4.45 -10.34,10.67 -17.46,18.69 0.66,-8.24 1.22,-15.7 1.55,-22.15 0.34,-6.57 0.78,-12.67 1.22,-18.56 0.45,-5.35 0.68,-11.57 0.68,-18.69l0 -180.83 -72.19 0 0 344.31 54.72 0 252.9 -212.99c6.45,-5.44 11.79,-10.35 16.01,-14.55 4.79,-4.58 9.02,-9.03 12.69,-13.33 -0.22,3.88 -0.67,9.1 -1.34,15.56 -0.66,6.57 -1.12,11.33 -1.45,14.55 -0.44,6.57 -0.66,14.79 -0.66,24.58l0 186.18 72.17 0zm-879.47 0l0 0 0 -344.31 294.15 0c27.04,0 47.16,5.11 60.17,15.47 12.02,10.56 18.02,27.57 18.02,51.25l0 76.73c0,23.14 -6,39.94 -18.13,50.62 -12.68,10.77 -32.68,16.12 -60.06,16.12l-215.41 0 0 134.12 -78.74 0zm258.9 -284.91l0 0 -180.16 0 0 91.39 180.16 0c14.02,0 23.57,-2.01 28.69,-6 4.9,-3.99 7.35,-11.13 7.35,-21.36l0 -36.7c0,-10.24 -2.45,-17.34 -7.35,-21.33 -5.12,-4.04 -14.67,-6 -28.69,-6zm-707.98 220.17l0 0 264.25 0 0 -218.21 -264.25 0 0 218.21zm-80.08 -198.17l0 0c0,-31.15 5.8,-52.5 17.25,-63.96 12.35,-11.67 35.02,-17.44 68.16,-17.44l253.46 0c33.38,0 55.83,5.77 67.39,17.44 12.12,11.33 18.14,32.72 18.14,63.96l0 181.51c0,31.34 -6.02,52.7 -18.14,64.17 -11.67,11.43 -34.13,17.23 -67.39,17.23l-253.46 0c-33.02,0 -55.71,-5.8 -68.16,-17.23 -11.45,-11.58 -17.25,-32.93 -17.25,-64.17l0 -181.51zm-223.54 -20.04l0 0 0 282.95 -80.07 0 0 -282.95 -158.15 0 0 -61.36 397.04 0 0 61.36 -158.82 0zm-718.65 282.95l0 0 0 -344.31 80.06 0 0 133.46 250.25 0 0 -133.46 80.73 0 0 344.31 -80.73 0 0 -148.14 -250.25 0 0 148.14 -80.06 0zm-539.83 0l0 0 194.18 -344.31 77.29 0 197.63 344.31 -90.09 0 -41.37 -75.4 -218.21 0 -40.13 75.4 -79.3 0zm154.13 -137.45l0 0 150.81 0 -74.85 -140.14 -75.96 140.14zm-596.54 137.45l0 0 0 -344.31 294.94 0c26.9,0 46.83,5.31 59.5,16.13 11.9,10.67 17.9,27.56 17.9,50.68l0 41.96c0,16.11 -5.12,29.21 -15.34,39.48 -10.58,10.56 -25.25,16.68 -44.05,18.54 19.91,2.67 35.25,9.92 46.05,21.49 10.79,11.24 16.12,26.03 16.12,44.61l0 44.04c0,22.24 -8.45,39.12 -25.47,50.8 -16.34,11.02 -41.7,16.58 -76.07,16.58l-273.58 0zm261.47 -149.47l0 0 -182.73 0 0 87.4 182.73 0c15.46,0 25.68,-2.22 30.8,-6.68 5.34,-4.67 8.01,-12.65 8.01,-23.89l0 -26.03c0,-11.44 -2.67,-19.46 -8.01,-24.12 -5.23,-4.47 -15.46,-6.68 -30.8,-6.68zm0 -138.79l0 0 -182.73 0 0 82.06 182.73 0c13.57,0 23.13,-1.78 28.68,-5.21 5.45,-4.11 8.12,-10.59 8.12,-19.47l0 -32.71c0,-8.91 -2.67,-15.32 -8.12,-19.42 -5.55,-3.49 -15.11,-5.25 -28.68,-5.25zm-749.91 288.26l0 0 0 -344.31 80.74 0 0 143.45 190.71 -143.45 116.23 0 -228.2 162.25 256.22 182.06 -128.89 0 -206.07 -151.49 0 151.49 -80.74 0z"/>
  <path class="fil1" d="M1799.04 1203.91c-152.73,-262.56 -110.34,-588 103.83,-803.24 133.36,-134 313.09,-200.23 501.54,-182.81 242.15,22.34 459.14,230.38 622.39,394.54 4.52,4.57 4.51,11.97 -0.03,16.51 -4.56,4.51 -11.96,4.49 -16.48,-0.08 -158.45,-159.35 -372.92,-366.08 -608.04,-387.78 -181.51,-16.75 -354.4,46.98 -482.86,176.07 -206.73,207.71 -247.64,521.61 -100.22,775.06 3.23,5.54 1.33,12.68 -4.21,15.93 -5.53,3.22 -12.7,1.32 -15.92,-4.2z"/>
  <path class="fil1" d="M3721.73 1329.23c152.73,262.53 110.35,588 -103.83,803.22 -133.36,134.02 -313.09,200.18 -501.53,182.82 -242.16,-22.37 -459.13,-230.39 -622.4,-394.59 -4.51,-4.55 -4.51,-11.94 0.05,-16.46 4.56,-4.5 11.95,-4.5 16.47,0.03 158.47,159.38 372.91,366.11 608.03,387.82 181.51,16.74 354.41,-46.96 482.87,-176.05 206.72,-207.74 247.63,-521.67 100.22,-775.09 -3.23,-5.55 -1.33,-12.68 4.2,-15.9 5.55,-3.25 12.7,-1.35 15.92,4.2z"/>
  <path class="fil1" d="M2844.46 288.23c269.33,-140.43 592.47,-83.01 797.55,140.87 127.69,139.43 185.52,322.02 159.42,509.45 -33.52,240.86 -251.36,448 -422.93,603.49 -4.77,4.31 -12.14,3.97 -16.45,-0.81 -4.31,-4.74 -3.96,-12.14 0.8,-16.45 166.53,-150.92 382.96,-355.57 415.51,-589.44 25.14,-180.56 -30.51,-356.2 -153.53,-490.51 -197.95,-216.13 -509.62,-271.5 -769.59,-135.97 -5.7,2.96 -12.76,0.78 -15.71,-4.93 -2.98,-5.68 -0.76,-12.74 4.93,-15.7z"/>
  <path class="fil1" d="M2668.24 2244.88c-269.32,140.4 -592.48,83.03 -797.54,-140.87 -127.71,-139.42 -185.52,-322.03 -159.44,-509.45 33.53,-240.86 251.36,-448.01 422.95,-603.49 4.74,-4.3 12.14,-3.94 16.44,0.81 4.31,4.74 3.95,12.14 -0.81,16.45 -166.51,150.92 -382.94,355.6 -415.5,589.44 -25.13,180.55 30.51,356.2 153.52,490.51 197.97,216.1 509.63,271.47 769.61,135.97 5.68,-2.98 12.74,-0.76 15.7,4.93 2.97,5.68 0.76,12.74 -4.93,15.7z"/>
  <path class="fil1" d="M2858.48 600.13c-131.03,-134.88 -298.63,-251.68 -488.5,-269.22 -150.48,-13.9 -292.49,38.67 -398.91,145.6 -175.67,176.53 -205.74,438.97 -83.9,648.4 34.53,-33.96 69.05,-67.93 103.58,-101.9 -71.5,-148.81 -49.71,-324.89 68.76,-447.11 160.97,-166.05 391.14,-136.21 561.99,-2.68 82.36,64.36 158.44,68.84 236.98,26.91z"/>
  <path class="fil0" d="M2858.48 600.13c-131.02,-134.88 -298.62,-251.68 -488.5,-269.22 -150.48,-13.9 -292.49,38.67 -398.91,145.6 -175.66,176.53 -205.74,438.97 -83.9,648.4 34.53,-33.97 69.05,-67.93 103.58,-101.9 -71.5,-148.81 -49.71,-324.89 68.77,-447.12 160.96,-166.04 391.13,-136.2 561.99,-2.67 82.36,64.36 158.43,68.84 236.97,26.91z"/>
  <path class="fil1" d="M2658.51 1936.48c131.04,134.9 298.62,251.7 488.46,269.22 150.5,13.93 292.51,-38.64 398.94,-145.57 175.67,-176.51 205.76,-438.98 83.92,-648.43 -34.53,33.97 -69.05,67.94 -103.58,101.9 71.51,148.82 49.69,324.92 -68.79,447.14 -160.97,166.02 -391.12,136.18 -561.96,2.68 -82.37,-64.38 -158.43,-68.85 -236.99,-26.94z"/>
  <path class="fil0" d="M2658.51 1936.48c131.04,134.9 298.63,251.7 488.47,269.22 150.49,13.93 292.51,-38.64 398.93,-145.57 175.67,-176.51 205.76,-438.98 83.92,-648.43 -34.53,33.97 -69.04,67.93 -103.58,101.9 71.51,148.81 49.69,324.92 -68.79,447.14 -160.96,166.02 -391.12,136.18 -561.96,2.68 -82.36,-64.38 -158.43,-68.85 -236.99,-26.94z"/>
  <path class="fil1" d="M3432.38 1367.88c134.9,-131.05 251.68,-298.68 269.23,-488.52 13.9,-150.49 -38.68,-292.52 -145.61,-398.93 -176.52,-175.67 -438.97,-205.72 -648.41,-83.89 33.98,34.54 67.94,69.05 101.92,103.59 148.79,-71.52 324.88,-49.72 447.11,68.73 166.05,160.99 136.21,391.17 2.67,562.02 -64.36,82.34 -68.82,158.42 -26.91,237z"/>
  <path class="fil0" d="M3432.38 1367.87c134.9,-131.04 251.68,-298.67 269.23,-488.51 13.9,-150.5 -38.68,-292.52 -145.61,-398.93 -176.52,-175.67 -438.96,-205.72 -648.41,-83.89 33.98,34.54 67.95,69.05 101.93,103.58 148.79,-71.51 324.87,-49.71 447.1,68.74 166.05,160.99 136.21,391.17 2.68,562.02 -64.37,82.34 -68.83,158.42 -26.92,236.99z"/>
  <path class="fil1" d="M2084.61 1168.77c-134.89,131.04 -251.67,298.64 -269.23,488.48 -13.9,150.48 38.67,292.49 145.58,398.9 176.51,175.71 438.97,205.77 648.44,83.95 -33.98,-34.54 -67.94,-69.05 -101.91,-103.61 -148.8,71.51 -324.89,49.74 -447.11,-68.74 -166.04,-160.96 -136.22,-391.15 -2.68,-561.99 64.37,-82.37 68.84,-158.44 26.91,-236.99z"/>
  <path class="fil0" d="M2084.62 1168.76c-134.89,131.05 -251.68,298.65 -269.23,488.49 -13.91,150.48 38.66,292.49 145.57,398.9 176.51,175.7 438.97,205.77 648.44,83.95 -33.97,-34.54 -67.94,-69.05 -101.91,-103.61 -148.8,71.51 -324.89,49.74 -447.1,-68.74 -166.05,-160.96 -136.22,-391.15 -2.69,-561.99 64.37,-82.37 68.84,-158.44 26.92,-237z"/>
  <polygon class="fil1" points="2275.15,726.6 2526.13,973.55 2485.29,1015.08 2234.3,768.1 "/>
  <polygon class="fil1" points="3316.47,757.79 3082.09,988.4 3057.6,963.51 3291.97,732.89 "/>
  <polygon class="fil1" points="3281.46,1807.18 3030.47,1560.23 3071.31,1518.71 3322.3,1765.66 "/>
  <polygon class="fil1" points="2217,1803.6 2451.37,1572.99 2475.89,1597.91 2241.52,1828.53 "/>
  <path class="fil1" d="M2668.31 1148.92c-1.14,1.45 -19.35,19.54 -20.42,20.26 -5.55,-1.35 -24.44,-10.3 -27.03,-9.96 -3.02,1.01 -20.58,33.94 -22.36,37l22.05 19.31c-0.42,4.08 -5.74,16.5 -7.41,28.7l-29.04 4.1 0.06 44.44c5.18,0.78 11.14,2.01 15.73,2.81l11.22 2.28c2.95,1.17 2.99,8.67 4.77,15.39 1.26,4.77 2.56,9.24 4.01,13.31 -4.7,4.95 -19.12,13.91 -22.21,18.32l21.24 37.68c7.02,-0.42 18.71,-7.25 27.04,-9l3.14 2.98c4.22,4.82 13.67,14.87 18.44,17.75l-10.15 26.88c3.37,2.96 34.02,20.84 37.83,21.9l18.64 -20.6c3.8,0.54 9.66,2.88 13.8,3.97 5.24,1.35 9.49,2.2 15.03,3.4l4.62 27.06c3.73,2.2 34.15,0 43.78,1.27 0.57,-6.04 2.44,-26.39 7.36,-28.36l5.45 -1.24c9.42,-2.03 13.74,-4.06 21.63,-6.1 6.04,7.13 12.04,14.76 17.54,21.88l37.51 -21.23c0.15,-8.03 -8.39,-20.58 -8.4,-28.01 8.26,-6.4 13.05,-13.33 21.09,-20.78l25.92 9.83c3.19,-2.59 8.35,-13.38 11.16,-18.31 3.06,-5.27 8.35,-13.05 10.9,-19.02 -1.67,-2.52 -17.82,-16.59 -21.4,-18.04 0.48,-2.23 7.83,-28.85 8.04,-29.24 3.91,-2.43 21.58,-4.05 28.04,-4.83l-0.05 -44.14c-3.79,-0.92 -26.95,-4.38 -27.41,-5.71l-8.47 -28.38c7.44,-6.36 15.76,-11.42 22.2,-18.34 -2.12,-5.4 -17,-29.38 -21.51,-38.03l-27.57 9.71c-7.35,-6.2 -13.05,-13.83 -20.94,-19.95 1.89,-8.44 9.61,-21.02 10.33,-28.96 -4.35,-0.85 -29.88,-17.68 -37.66,-20.94l-19.01 22.86c-6.27,-0.59 -8.07,-2.33 -13.39,-4.28 -4.34,-1.56 -9.11,-2.26 -14.61,-2.78l-3.96 -24.93c-0.45,-3.54 0.13,-5.66 -3.1,-5.66l-39.59 0c-3.64,0 -3.06,3.32 -3.63,6.98l-4.39 24.59c-6.84,-3.1 -21.02,4.55 -27.69,6.08 -2.85,-4.23 -5.76,-7.84 -9.03,-12.22 -2.38,-3.15 -6.52,-9.55 -9.32,-11.11 -2.8,0.98 -7.3,3.92 -10.07,5.55l-19.2 10.72c-4.04,2 -6.03,3.19 -9.16,5.37l9.61 27.77zm-119.82 119.36l0 0c0,-120.94 103.07,-220.82 225.62,-218.64 121.64,2.15 219,102.63 217.46,226.82 -0.69,56.3 -28.12,118.14 -67.7,154.68 -147.16,135.81 -375.38,34.92 -375.38,-162.86z"/>
  <path class="fil1" d="M3281.12 1920.45c-87.04,0 -157.59,-69.16 -157.59,-154.45 0,-85.32 70.55,-154.47 157.59,-154.47 87.02,0 157.58,69.15 157.58,154.47 0,85.29 -70.56,154.45 -157.58,154.45z"/>
  <path class="fil0" d="M3281.12 1920.45c-87.03,0 -157.59,-69.16 -157.59,-154.45 0,-85.32 70.56,-154.47 157.59,-154.47 87.02,0 157.58,69.15 157.58,154.47 0,85.29 -70.56,154.45 -157.58,154.45z"/>
  <path class="fil1" d="M3387.45 757.59c0,53.92 -42.84,97.64 -95.69,97.64 -52.84,0 -95.69,-43.72 -95.69,-97.64 0,-53.93 42.85,-97.63 95.69,-97.63 52.85,0 95.69,43.7 95.69,97.63z"/>
  <path class="fil0" d="M3387.45 757.59c0,53.92 -42.83,97.64 -95.69,97.64 -52.84,0 -95.69,-43.72 -95.69,-97.64 0,-53.93 42.85,-97.63 95.69,-97.63 52.86,0 95.69,43.7 95.69,97.63z"/>
  <path class="fil1" d="M2337.39 1803.83c0,53.9 -42.82,97.63 -95.68,97.63 -52.86,0 -95.71,-43.73 -95.71,-97.63 0,-53.95 42.85,-97.64 95.71,-97.64 52.86,0 95.68,43.69 95.68,97.64z"/>
  <path class="fil0" d="M2337.4 1803.83c0,53.9 -42.83,97.62 -95.69,97.62 -52.86,0 -95.7,-43.72 -95.7,-97.62 0,-53.95 42.84,-97.65 95.7,-97.65 52.86,0 95.69,43.7 95.69,97.65z"/>
  <path class="fil1" d="M2101.02 771.21c0,-88.25 70.15,-159.82 156.67,-159.82 86.52,0 156.67,71.57 156.67,159.82 0,88.27 -70.15,159.84 -156.67,159.84 -86.52,0 -156.67,-71.57 -156.67,-159.84z"/>
  <path class="fil0" d="M2101.03 771.21c0,-88.25 70.14,-159.82 156.67,-159.82 86.51,0 156.66,71.57 156.66,159.82 0,88.27 -70.15,159.84 -156.66,159.84 -86.53,0 -156.67,-71.57 -156.67,-159.84z"/>
  <path class="fil1" d="M2569.44 1029.38c-2.25,2.85 -38.19,38.53 -40.27,39.95 -10.96,-2.65 -48.23,-20.29 -53.35,-19.64 -5.95,2.03 -40.56,66.92 -44.09,73l43.5 38.08c-0.84,8 -11.32,32.52 -14.63,56.57l-57.26 8.12 0.12 87.66c10.21,1.54 21.97,3.94 31.01,5.5l22.14 4.52c5.83,2.33 5.89,17.09 9.4,30.36 2.48,9.39 5.05,18.21 7.9,26.2 -9.26,9.82 -37.7,27.49 -43.79,36.23l41.9 74.29c13.85,-0.85 36.9,-14.3 53.33,-17.78l6.18 5.87c8.34,9.52 26.96,29.29 36.37,35.01l-20.01 53.03c6.64,5.87 67.08,41.08 74.6,43.2l36.78 -40.68c7.48,1.11 19.05,5.73 27.21,7.86 10.33,2.7 18.72,4.34 29.66,6.72l9.14 53.37c7.35,4.32 67.33,0 86.33,2.52 1.13,-11.9 4.78,-52.07 14.47,-55.92l10.76 -2.51c18.6,-4 27.12,-7.94 42.67,-12.04 11.92,14.07 23.74,29.17 34.6,43.15l74 -41.82c0.3,-15.83 -16.55,-40.64 -16.55,-55.25 16.29,-12.64 25.73,-26.26 41.56,-41l51.12 19.46c6.3,-5.14 16.47,-26.47 22.05,-36.17 6.01,-10.41 16.44,-25.69 21.46,-37.52 -3.29,-4.98 -35.14,-32.7 -42.2,-35.58 0.96,-4.38 15.45,-56.93 15.85,-57.68 7.72,-4.78 42.56,-8 55.33,-9.52l-0.11 -87.03c-7.45,-1.85 -53.14,-8.7 -54.03,-11.3l-16.73 -55.94c14.66,-12.58 31.08,-22.56 43.8,-36.2 -4.2,-10.64 -33.57,-57.91 -42.44,-74.97l-54.39 19.13c-14.46,-12.27 -25.72,-27.28 -41.27,-39.39 3.73,-16.66 18.94,-41.44 20.35,-57.11 -8.59,-1.69 -58.94,-34.83 -74.28,-41.28l-37.49 45.12c-12.38,-1.22 -15.9,-4.64 -26.42,-8.49 -8.55,-3.08 -17.96,-4.43 -28.81,-5.45l-7.8 -49.22c-0.92,-6.95 0.25,-11.13 -6.13,-11.13l-78.06 0c-7.21,0 -6.06,6.54 -7.17,13.75l-8.66 48.53c-13.52,-6.15 -41.48,8.97 -54.63,12.01 -5.65,-8.38 -11.35,-15.49 -17.82,-24.13 -4.65,-6.23 -12.84,-18.87 -18.36,-21.88 -5.53,1.89 -14.4,7.68 -19.85,10.9l-37.89 21.15c-7.98,3.94 -11.88,6.28 -18.07,10.59l18.97 54.78zm-58.01 238.02l0 0c0,-141.22 120.34,-257.77 263.39,-255.26 142,2.52 255.65,119.81 253.87,264.79 -0.82,65.74 -32.83,137.91 -79.04,180.57 -171.8,158.55 -438.22,40.76 -438.22,-190.1z"/>
 </g>
</svg>
