<?xml version="1.0" encoding="UTF-8"?>
<!DOCTYPE svg PUBLIC "-//W3C//DTD SVG 1.1//EN" "http://www.w3.org/Graphics/SVG/1.1/DTD/svg11.dtd">
<!-- Creator: CorelDRAW 2019 (64-Bit) -->
<svg xmlns="http://www.w3.org/2000/svg" xml:space="preserve" width="45.7198mm" height="43.1798mm" version="1.1" style="shape-rendering:geometricPrecision; text-rendering:geometricPrecision; image-rendering:optimizeQuality; fill-rule:evenodd; clip-rule:evenodd"
viewBox="0 0 4571.98 4317.98"
 xmlns:xlink="http://www.w3.org/1999/xlink"
 xmlns:xodm="http://www.corel.com/coreldraw/odm/2003">
 <defs>
  <style type="text/css">
   <![CDATA[
    .fil46 {fill:url(#id1)}
    .fil35 {fill:url(#id2)}
    .fil52 {fill:url(#id3)}
    .fil50 {fill:url(#id4)}
    .fil67 {fill:url(#id5)}
    .fil61 {fill:url(#id6)}
    .fil51 {fill:url(#id7)}
    .fil30 {fill:url(#id8)}
    .fil31 {fill:url(#id9)}
    .fil70 {fill:url(#id10)}
    .fil44 {fill:url(#id11)}
    .fil58 {fill:url(#id12)}
    .fil62 {fill:url(#id13)}
    .fil59 {fill:url(#id14)}
    .fil47 {fill:url(#id15)}
    .fil32 {fill:url(#id16)}
    .fil42 {fill:url(#id17)}
    .fil45 {fill:url(#id18)}
    .fil43 {fill:url(#id19)}
    .fil33 {fill:url(#id20)}
    .fil38 {fill:url(#id21)}
    .fil66 {fill:url(#id22)}
    .fil69 {fill:url(#id23)}
    .fil48 {fill:url(#id24)}
    .fil60 {fill:url(#id25)}
    .fil41 {fill:url(#id26)}
    .fil40 {fill:url(#id27)}
    .fil53 {fill:url(#id28)}
    .fil55 {fill:url(#id29)}
    .fil39 {fill:url(#id30)}
    .fil57 {fill:url(#id31)}
    .fil56 {fill:url(#id32)}
    .fil71 {fill:url(#id33)}
    .fil34 {fill:url(#id34)}
    .fil64 {fill:url(#id35)}
    .fil36 {fill:url(#id36)}
    .fil68 {fill:url(#id37)}
    .fil49 {fill:url(#id38)}
    .fil3 {fill:url(#id39)}
    .fil54 {fill:url(#id40)}
    .fil37 {fill:url(#id41)}
    .fil63 {fill:url(#id42)}
    .fil65 {fill:url(#id43)}
    .fil2 {fill:url(#id44)}
    .fil13 {fill:url(#id45)}
    .fil5 {fill:url(#id46)}
    .fil7 {fill:url(#id47)}
    .fil16 {fill:url(#id48)}
    .fil8 {fill:url(#id49)}
    .fil4 {fill:url(#id50)}
    .fil14 {fill:url(#id51)}
    .fil26 {fill:url(#id52)}
    .fil27 {fill:url(#id53)}
    .fil11 {fill:url(#id54)}
    .fil21 {fill:url(#id55)}
    .fil29 {fill:url(#id56)}
    .fil15 {fill:url(#id57)}
    .fil19 {fill:url(#id58)}
    .fil18 {fill:url(#id59)}
    .fil20 {fill:url(#id60)}
    .fil25 {fill:url(#id61)}
    .fil6 {fill:url(#id62)}
    .fil0 {fill:url(#id63)}
    .fil22 {fill:url(#id64)}
    .fil23 {fill:url(#id65)}
    .fil10 {fill:url(#id66)}
    .fil1 {fill:url(#id67)}
    .fil12 {fill:url(#id68)}
    .fil28 {fill:url(#id69)}
    .fil9 {fill:url(#id70)}
    .fil17 {fill:url(#id71)}
    .fil24 {fill:url(#id72)}
   ]]>
  </style>
    <clipPath id="id0">
     <path d="M1690.23 4305.02l-860.87 -1419.62 -749.39 -1234.46 1878.63 -1288.32 1745.48 2560.93 -2014.89 1381.47 1.04 0z"/>
    </clipPath>
  <linearGradient id="id1" gradientUnits="userSpaceOnUse" x1="3957.83" y1="1291.76" x2="4103.89" y2="1107.83">
   <stop offset="0" style="stop-opacity:1; stop-color:#EE9755"/>
   <stop offset="0.470588" style="stop-opacity:1; stop-color:#EB7967"/>
   <stop offset="1" style="stop-opacity:1; stop-color:#E75A79"/>
  </linearGradient>
  <linearGradient id="id2" gradientUnits="userSpaceOnUse" x1="3454.41" y1="1401.04" x2="3662.5" y2="1138.99">
   <stop offset="0" style="stop-opacity:1; stop-color:#E75A79"/>
   <stop offset="0.529412" style="stop-opacity:1; stop-color:#EA7867"/>
   <stop offset="1" style="stop-opacity:1; stop-color:#EE9755"/>
  </linearGradient>
  <linearGradient id="id3" gradientUnits="userSpaceOnUse" xlink:href="#id1" x1="1350.02" y1="1946.28" x2="1523.59" y2="1727.71">
  </linearGradient>
  <linearGradient id="id4" gradientUnits="userSpaceOnUse" xlink:href="#id1" x1="1461.83" y1="975.25" x2="1557.16" y2="855.2">
  </linearGradient>
  <linearGradient id="id5" gradientUnits="userSpaceOnUse" xlink:href="#id2" x1="3274.9" y1="2185.6" x2="3602.17" y2="1773.49">
  </linearGradient>
  <linearGradient id="id6" gradientUnits="userSpaceOnUse" xlink:href="#id2" x1="2675.81" y1="1797.03" x2="2904.11" y2="1509.55">
  </linearGradient>
  <linearGradient id="id7" gradientUnits="userSpaceOnUse" xlink:href="#id2" x1="1473.77" y1="960.31" x2="1545.27" y2="870.26">
  </linearGradient>
  <linearGradient id="id8" gradientUnits="userSpaceOnUse" xlink:href="#id1" x1="2687.15" y1="1128.66" x2="3244.55" y2="426.75">
  </linearGradient>
  <linearGradient id="id9" gradientUnits="userSpaceOnUse" xlink:href="#id2" x1="2756.86" y1="1040.97" x2="3174.9" y2="514.53">
  </linearGradient>
  <linearGradient id="id10" gradientUnits="userSpaceOnUse" xlink:href="#id1" x1="3604.96" y1="858.65" x2="3908.41" y2="476.54">
  </linearGradient>
  <linearGradient id="id11" gradientUnits="userSpaceOnUse" xlink:href="#id1" x1="3816.31" y1="1787.04" x2="3962.41" y2="1603.07">
  </linearGradient>
  <linearGradient id="id12" gradientUnits="userSpaceOnUse" xlink:href="#id1" x1="1749.55" y1="2231.62" x2="2248.25" y2="1603.63">
  </linearGradient>
  <linearGradient id="id13" gradientUnits="userSpaceOnUse" xlink:href="#id1" x1="2112.88" y1="1452.2" x2="2358.56" y2="1142.83">
  </linearGradient>
  <linearGradient id="id14" gradientUnits="userSpaceOnUse" xlink:href="#id2" x1="1811.89" y1="2153.14" x2="2185.91" y2="1682.15">
  </linearGradient>
  <linearGradient id="id15" gradientUnits="userSpaceOnUse" xlink:href="#id2" x1="3976.11" y1="1268.7" x2="4085.65" y2="1130.75">
  </linearGradient>
  <linearGradient id="id16" gradientUnits="userSpaceOnUse" xlink:href="#id1" x1="1877.58" y1="938.72" x2="2137.93" y2="610.87">
  </linearGradient>
  <linearGradient id="id17" gradientUnits="userSpaceOnUse" xlink:href="#id1" x1="2986.93" y1="2722.53" x2="3132.99" y2="2538.61">
  </linearGradient>
  <linearGradient id="id18" gradientUnits="userSpaceOnUse" xlink:href="#id2" x1="3834.56" y1="1763.97" x2="3944.13" y2="1625.99">
  </linearGradient>
  <linearGradient id="id19" gradientUnits="userSpaceOnUse" xlink:href="#id2" x1="3005.2" y1="2699.58" x2="3114.77" y2="2561.6">
  </linearGradient>
  <linearGradient id="id20" gradientUnits="userSpaceOnUse" xlink:href="#id2" x1="1910.11" y1="897.65" x2="2105.38" y2="651.76">
  </linearGradient>
  <linearGradient id="id21" gradientUnits="userSpaceOnUse" xlink:href="#id1" x1="1658.33" y1="1338.88" x2="1804.39" y2="1154.95">
  </linearGradient>
  <linearGradient id="id22" gradientUnits="userSpaceOnUse" xlink:href="#id1" x1="3220.35" y1="2254.29" x2="3656.71" y2="1704.8">
  </linearGradient>
  <linearGradient id="id23" gradientUnits="userSpaceOnUse" xlink:href="#id2" x1="4153.72" y1="1857.8" x2="4320.79" y2="1647.41">
  </linearGradient>
  <linearGradient id="id24" gradientUnits="userSpaceOnUse" xlink:href="#id1" x1="2134.01" y1="310.94" x2="2229.36" y2="190.86">
  </linearGradient>
  <linearGradient id="id25" gradientUnits="userSpaceOnUse" xlink:href="#id1" x1="2637.77" y1="1844.93" x2="2942.13" y2="1461.66">
  </linearGradient>
  <linearGradient id="id26" gradientUnits="userSpaceOnUse" xlink:href="#id2" x1="2226.9" y1="2644.55" x2="2336.44" y2="2506.61">
  </linearGradient>
  <linearGradient id="id27" gradientUnits="userSpaceOnUse" xlink:href="#id1" x1="2208.64" y1="2667.51" x2="2354.71" y2="2483.56">
  </linearGradient>
  <linearGradient id="id28" gradientUnits="userSpaceOnUse" xlink:href="#id2" x1="1371.71" y1="1918.96" x2="1501.9" y2="1755.02">
  </linearGradient>
  <linearGradient id="id29" gradientUnits="userSpaceOnUse" xlink:href="#id2" x1="2550.96" y1="2984.22" x2="2681.12" y2="2820.31">
  </linearGradient>
  <linearGradient id="id30" gradientUnits="userSpaceOnUse" xlink:href="#id2" x1="1676.6" y1="1315.92" x2="1786.14" y2="1177.98">
  </linearGradient>
  <linearGradient id="id31" gradientUnits="userSpaceOnUse" xlink:href="#id2" x1="3486.76" y1="2791.92" x2="3651.78" y2="2584.11">
  </linearGradient>
  <linearGradient id="id32" gradientUnits="userSpaceOnUse" xlink:href="#id1" x1="3459.25" y1="2826.56" x2="3679.29" y2="2549.47">
  </linearGradient>
  <linearGradient id="id33" gradientUnits="userSpaceOnUse" xlink:href="#id2" x1="3642.92" y1="810.95" x2="3870.5" y2="524.36">
  </linearGradient>
  <linearGradient id="id34" gradientUnits="userSpaceOnUse" xlink:href="#id1" x1="3419.71" y1="1444.79" x2="3697.19" y2="1095.37">
  </linearGradient>
  <linearGradient id="id35" gradientUnits="userSpaceOnUse" xlink:href="#id1" x1="2568.86" y1="2442.83" x2="2814.52" y2="2133.49">
  </linearGradient>
  <linearGradient id="id36" gradientUnits="userSpaceOnUse" xlink:href="#id1" x1="2409.12" y1="466.23" x2="2555.16" y2="282.31">
  </linearGradient>
  <linearGradient id="id37" gradientUnits="userSpaceOnUse" xlink:href="#id1" x1="4125.88" y1="1892.84" x2="4348.66" y2="1612.3">
  </linearGradient>
  <linearGradient id="id38" gradientUnits="userSpaceOnUse" xlink:href="#id2" x1="2145.94" y1="295.99" x2="2217.42" y2="205.98">
  </linearGradient>
  <linearGradient id="id39" gradientUnits="userSpaceOnUse" x1="1665.27" y1="2980.86" x2="3857.38" y2="220.43">
   <stop offset="0" style="stop-opacity:1; stop-color:#F19552"/>
   <stop offset="0.458824" style="stop-opacity:1; stop-color:#ED7565"/>
   <stop offset="1" style="stop-opacity:1; stop-color:#E85578"/>
  </linearGradient>
  <linearGradient id="id40" gradientUnits="userSpaceOnUse" xlink:href="#id1" x1="2529.24" y1="3011.54" x2="2702.82" y2="2792.95">
  </linearGradient>
  <linearGradient id="id41" gradientUnits="userSpaceOnUse" xlink:href="#id2" x1="2427.37" y1="443.26" x2="2536.91" y2="305.32">
  </linearGradient>
  <linearGradient id="id42" gradientUnits="userSpaceOnUse" xlink:href="#id2" x1="2143.58" y1="1413.6" x2="2327.83" y2="1181.58">
  </linearGradient>
  <linearGradient id="id43" gradientUnits="userSpaceOnUse" xlink:href="#id2" x1="2599.55" y1="2404.14" x2="2783.81" y2="2172.11">
  </linearGradient>
  <linearGradient id="id44" gradientUnits="userSpaceOnUse" xlink:href="#id39" x1="1769.2" y1="2851.79" x2="3827.85" y2="259.42">
  </linearGradient>
  <linearGradient id="id45" gradientUnits="userSpaceOnUse" x1="1255.72" y1="3478.49" x2="3966.83" y2="64.53">
   <stop offset="0" style="stop-opacity:1; stop-color:#EF9755"/>
   <stop offset="0.458824" style="stop-opacity:1; stop-color:#EB7867"/>
   <stop offset="1" style="stop-opacity:1; stop-color:#E7587A"/>
  </linearGradient>
  <linearGradient id="id46" gradientUnits="userSpaceOnUse" xlink:href="#id39" x1="1491.77" y1="3195.73" x2="3906.3" y2="155.22">
  </linearGradient>
  <linearGradient id="id47" gradientUnits="userSpaceOnUse" x1="1364.05" y1="3353" x2="3941.69" y2="107.08">
   <stop offset="0" style="stop-opacity:1; stop-color:#EF9553"/>
   <stop offset="0.458824" style="stop-opacity:1; stop-color:#EC7766"/>
   <stop offset="1" style="stop-opacity:1; stop-color:#E8587A"/>
  </linearGradient>
  <linearGradient id="id48" gradientUnits="userSpaceOnUse" x1="1356.13" y1="3346.65" x2="3933.77" y2="100.75">
   <stop offset="0" style="stop-opacity:1; stop-color:#EF9755"/>
   <stop offset="0.470588" style="stop-opacity:1; stop-color:#EB7967"/>
   <stop offset="1" style="stop-opacity:1; stop-color:#E75A79"/>
  </linearGradient>
  <linearGradient id="id49" gradientUnits="userSpaceOnUse" xlink:href="#id47" x1="1317.38" y1="3409.91" x2="3954.33" y2="89.3">
  </linearGradient>
  <linearGradient id="id50" gradientUnits="userSpaceOnUse" xlink:href="#id39" x1="1572.8" y1="3095.57" x2="3883.52" y2="185.76">
  </linearGradient>
  <linearGradient id="id51" gradientUnits="userSpaceOnUse" x1="1277.74" y1="3449" x2="3959.17" y2="72.38">
   <stop offset="0" style="stop-opacity:1; stop-color:#EF9755"/>
   <stop offset="0.470588" style="stop-opacity:1; stop-color:#EB7867"/>
   <stop offset="1" style="stop-opacity:1; stop-color:#E7587A"/>
  </linearGradient>
  <linearGradient id="id52" gradientUnits="userSpaceOnUse" xlink:href="#id1" x1="2864.12" y1="3485.93" x2="4774.34" y2="1080.46">
  </linearGradient>
  <linearGradient id="id53" gradientUnits="userSpaceOnUse" xlink:href="#id1" x1="862.51" y1="1896.79" x2="2773.01" y2="-508.97">
  </linearGradient>
  <linearGradient id="id54" gradientUnits="userSpaceOnUse" x1="1246.04" y1="3494.32" x2="3971.96" y2="61.69">
   <stop offset="0" style="stop-opacity:1; stop-color:#EF9755"/>
   <stop offset="0.458824" style="stop-opacity:1; stop-color:#EC7867"/>
   <stop offset="1" style="stop-opacity:1; stop-color:#E8587A"/>
  </linearGradient>
  <linearGradient id="id55" gradientUnits="userSpaceOnUse" xlink:href="#id1" x1="1752.47" y1="2838.53" x2="3811.13" y2="246.14">
  </linearGradient>
  <linearGradient id="id56" gradientUnits="userSpaceOnUse" xlink:href="#id1" x1="771.32" y1="1824.12" x2="2681.5" y2="-581.19">
  </linearGradient>
  <linearGradient id="id57" gradientUnits="userSpaceOnUse" xlink:href="#id51" x1="1311.2" y1="3405.06" x2="3948.16" y2="84.46">
  </linearGradient>
  <linearGradient id="id58" gradientUnits="userSpaceOnUse" xlink:href="#id1" x1="1559.59" y1="3085.07" x2="3870.32" y2="175.26">
  </linearGradient>
  <linearGradient id="id59" gradientUnits="userSpaceOnUse" xlink:href="#id48" x1="1480.31" y1="3186.62" x2="3894.85" y2="146.1">
  </linearGradient>
  <linearGradient id="id60" gradientUnits="userSpaceOnUse" xlink:href="#id1" x1="1650.31" y1="2968.98" x2="3842.42" y2="208.55">
  </linearGradient>
  <linearGradient id="id61" gradientUnits="userSpaceOnUse" xlink:href="#id1" x1="2423.83" y1="3136.54" x2="4334.2" y2="730.92">
  </linearGradient>
  <linearGradient id="id62" gradientUnits="userSpaceOnUse" x1="1422.18" y1="3281.55" x2="3925.67" y2="128.99">
   <stop offset="0" style="stop-opacity:1; stop-color:#F19552"/>
   <stop offset="0.458824" style="stop-opacity:1; stop-color:#ED7766"/>
   <stop offset="1" style="stop-opacity:1; stop-color:#E8587A"/>
  </linearGradient>
  <linearGradient id="id63" gradientUnits="userSpaceOnUse" x1="2831.33" y1="1631.94" x2="-354.68" y2="3854.32">
   <stop offset="0" style="stop-opacity:1; stop-color:#F5AD57"/>
   <stop offset="1" style="stop-opacity:1; stop-color:#FEFEFE"/>
  </linearGradient>
  <linearGradient id="id64" gradientUnits="userSpaceOnUse" xlink:href="#id1" x1="1866.09" y1="2693.65" x2="3776.48" y2="287.97">
  </linearGradient>
  <linearGradient id="id65" gradientUnits="userSpaceOnUse" xlink:href="#id1" x1="2936.5" y1="3543.52" x2="4846.7" y2="1138.12">
  </linearGradient>
  <linearGradient id="id66" gradientUnits="userSpaceOnUse" xlink:href="#id54" x1="1258.36" y1="3480.67" x2="3969.45" y2="66.71">
  </linearGradient>
  <linearGradient id="id67" gradientUnits="userSpaceOnUse" x1="1884.59" y1="2708.38" x2="3794.95" y2="302.73">
   <stop offset="0" style="stop-opacity:1; stop-color:#F19552"/>
   <stop offset="1" style="stop-opacity:1; stop-color:#E85578"/>
  </linearGradient>
  <linearGradient id="id68" gradientUnits="userSpaceOnUse" xlink:href="#id54" x1="1245.15" y1="3493.64" x2="3971.07" y2="61">
  </linearGradient>
  <linearGradient id="id69" gradientUnits="userSpaceOnUse" xlink:href="#id1" x1="2031.17" y1="2824.67" x2="3941.53" y2="419.08">
  </linearGradient>
  <linearGradient id="id70" gradientUnits="userSpaceOnUse" x1="1282.14" y1="3452.47" x2="3963.57" y2="75.85">
   <stop offset="0" style="stop-opacity:1; stop-color:#EF9753"/>
   <stop offset="0.458824" style="stop-opacity:1; stop-color:#EC7866"/>
   <stop offset="1" style="stop-opacity:1; stop-color:#E8587A"/>
  </linearGradient>
  <linearGradient id="id71" gradientUnits="userSpaceOnUse" xlink:href="#id48" x1="1412.5" y1="3273.93" x2="3915.99" y2="121.36">
  </linearGradient>
  <linearGradient id="id72" gradientUnits="userSpaceOnUse" xlink:href="#id1" x1="1175.07" y1="2144.83" x2="3085.42" y2="-260.81">
  </linearGradient>
 </defs>
 <g id="Слой_x0020_1">
  <metadata id="CorelCorpID_0Corel-Layer"/>
  <g id="_2566222292336">
   <path class="fil0" d="M1689.72 4305.29l0 0 2014.42 -1381.37 -1745.79 -2561.46 0.02 0 1745.77 2561.46 -2014.42 1381.37zm-860.77 -1419.69l-748.89 -1235.16 748.89 1235.16z"/>
   <g style="clip-path:url(#id0)">
    <image x="70.68" y="355.89" width="3641.66" height="3959.23" xlink:href="1_Images\1_ImgID1.png"/>
   </g>
   <path class="fil1" d="M4253.52 1561.58c0,805.22 -652.87,1458.07 -1458.19,1458.07 -805.33,0 -1458.18,-652.85 -1458.18,-1458.07 0,-805.37 652.85,-1458.37 1458.18,-1458.37 805.32,0 1458.19,653 1458.19,1458.37z"/>
   <path class="fil2" d="M4222.51 1536.85c0,778.2 -630.85,1409.06 -1409.05,1409.06 -778.19,0 -1409.04,-630.86 -1409.04,-1409.06 0,-778.2 630.85,-1409.06 1409.04,-1409.06 778.2,0 1409.05,630.86 1409.05,1409.06z"/>
   <path class="fil3" d="M4191.51 1512.27c0,751.02 -608.84,1359.89 -1359.91,1359.89 -751.08,0 -1359.91,-608.87 -1359.91,-1359.89 0,-751.02 608.83,-1360.05 1359.91,-1360.05 751.07,0 1359.91,609.03 1359.91,1360.05z"/>
   <path class="fil4" d="M4160.54 1487.53c0,724 -586.85,1310.89 -1310.81,1310.89 -723.94,0 -1310.77,-586.89 -1310.77,-1310.89 0,-723.84 586.83,-1310.88 1310.77,-1310.88 723.96,0 1310.81,587.04 1310.81,1310.88z"/>
   <path class="fil5" d="M4129.53 1462.95c0,696.82 -564.85,1261.73 -1261.67,1261.73 -696.82,0 -1261.63,-564.91 -1261.63,-1261.73 0,-696.82 564.81,-1261.72 1261.63,-1261.72 696.82,0 1261.67,564.9 1261.67,1261.72z"/>
   <path class="fil6" d="M4098.54 1438.22c0,669.79 -542.83,1212.56 -1212.54,1212.56 -669.69,0 -1212.5,-542.77 -1212.5,-1212.56 0,-669.64 542.81,-1212.56 1212.5,-1212.56 669.71,0 1212.54,542.92 1212.54,1212.56z"/>
   <path class="fil7" d="M4067.54 1413.64c0,642.62 -520.84,1163.4 -1163.41,1163.4 -642.56,0 -1163.36,-520.78 -1163.36,-1163.4 0,-642.47 520.8,-1163.4 1163.36,-1163.4 642.57,0 1163.41,520.93 1163.41,1163.4z"/>
   <path class="fil8" d="M4036.55 1389.06c0,615.29 -498.83,1114.24 -1114.29,1114.24 -615.42,0 -1114.24,-498.95 -1114.24,-1114.24 0,-615.45 498.82,-1114.39 1114.24,-1114.39 615.46,0 1114.29,498.94 1114.29,1114.39z"/>
   <path class="fil9" d="M4005.54 1364.32c0,588.27 -476.81,1065.23 -1065.16,1065.23 -588.29,0 -1065.07,-476.96 -1065.07,-1065.23 0,-588.26 476.78,-1065.23 1065.07,-1065.23 588.35,0 1065.16,476.97 1065.16,1065.23z"/>
   <path class="fil10" d="M3974.55 1339.74c0,561.09 -454.81,1015.92 -1016.03,1015.92 -561.18,0 -1015.96,-454.83 -1015.96,-1015.92 0,-561.09 454.78,-1016.07 1015.96,-1016.07 561.22,0 1016.03,454.98 1016.03,1016.07z"/>
   <path class="fil11" d="M3943.55 1315.01c0,534.06 -432.81,966.9 -966.89,966.9 -534.06,0 -966.83,-432.84 -966.83,-966.9 0,-533.91 432.77,-966.91 966.83,-966.91 534.08,0 966.89,433 966.89,966.91z"/>
   <path class="fil12" d="M3912.56 1290.43c0,506.89 -410.81,917.74 -917.78,917.74 -506.92,0 -917.66,-410.85 -917.66,-917.74 0,-506.89 410.74,-917.75 917.66,-917.75 506.97,0 917.78,410.86 917.78,917.75z"/>
   <path class="fil13" d="M3881.56 1265.69c0,479.87 -388.79,868.74 -868.64,868.74 -479.8,0 -868.55,-388.87 -868.55,-868.74 0,-479.71 388.75,-868.58 868.55,-868.58 479.85,0 868.64,388.87 868.64,868.58z"/>
   <path class="fil14" d="M3850.57 1241.11c0,452.69 -366.79,819.58 -819.51,819.58 -452.67,0 -819.42,-366.89 -819.42,-819.58 0,-452.53 366.75,-819.57 819.42,-819.57 452.72,0 819.51,367.04 819.51,819.57z"/>
   <path class="fil15" d="M3819.58 1216.38c0,425.51 -344.81,770.41 -770.4,770.41 -425.54,0 -770.25,-344.9 -770.25,-770.41 0,-425.36 344.71,-770.26 770.25,-770.26 425.59,0 770.4,344.9 770.4,770.26z"/>
   <path class="fil16" d="M3788.59 1191.8c0,398.33 -322.8,721.25 -721.27,721.25 -398.41,0 -721.12,-322.92 -721.12,-721.25 0,-398.34 322.71,-721.25 721.12,-721.25 398.47,0 721.27,322.91 721.27,721.25z"/>
   <path class="fil17" d="M3757.58 1167.06c0,371.32 -300.78,672.24 -672.14,672.24 -371.28,0 -671.99,-300.92 -671.99,-672.24 0,-371 300.71,-672.08 671.99,-672.08 371.36,0 672.14,301.08 672.14,672.08z"/>
   <path class="fil18" d="M3726.58 1142.48c0,344.14 -278.77,623.08 -623,623.08 -344.15,0 -622.84,-278.94 -622.84,-623.08 0,-343.98 278.69,-622.92 622.84,-622.92 344.23,0 623,278.94 623,622.92z"/>
   <path class="fil19" d="M3695.59 1117.75c0,317.11 -256.77,574.07 -573.88,574.07 -317.02,0 -573.71,-256.96 -573.71,-574.07 0,-316.8 256.69,-573.76 573.71,-573.76 317.11,0 573.88,256.96 573.88,573.76z"/>
   <path class="fil20" d="M3664.6 1093.17c0,289.93 -234.78,524.75 -524.76,524.75 -289.9,0 -524.58,-234.82 -524.58,-524.75 0,-289.78 234.68,-524.6 524.58,-524.6 289.98,0 524.76,234.82 524.76,524.6z"/>
   <path class="fil21" d="M3633.59 1068.59c0,262.76 -212.74,475.59 -475.61,475.59 -262.79,0 -475.43,-212.83 -475.43,-475.59 0,-262.61 212.64,-475.59 475.43,-475.59 262.87,0 475.61,212.98 475.61,475.59z"/>
   <path class="fil22" d="M3602.59 1043.85c0,235.58 -190.74,426.58 -426.48,426.58 -235.65,0 -426.31,-191 -426.31,-426.58 0,-235.43 190.66,-426.42 426.31,-426.42 235.74,0 426.48,190.99 426.48,426.42z"/>
   <path class="fil23" d="M3820.8 2719.64c0,126.87 -102.97,229.93 -229.92,229.93 -126.95,0 -229.94,-103.06 -229.94,-229.93 0,-127.03 102.99,-230.09 229.94,-230.09 126.95,0 229.92,103.06 229.92,230.09z"/>
   <path class="fil24" d="M1603.85 1835.18c0,100.92 -81.84,182.75 -182.74,182.75 -101.01,0 -182.8,-81.83 -182.8,-182.75 0,-100.92 81.79,-182.91 182.8,-182.91 100.9,0 182.74,81.99 182.74,182.91z"/>
   <path class="fil25" d="M2842.03 2884.68c0,120.47 -97.65,218.03 -218.1,218.03 -120.54,0 -218.2,-97.56 -218.2,-218.03 0,-120.61 97.66,-218.17 218.2,-218.17 120.45,0 218.1,97.56 218.1,218.17z"/>
   <path class="fil26" d="M4516.56 1746.63c0,149.93 -121.45,271.3 -271.18,271.3 -149.78,0 -271.28,-121.37 -271.28,-271.3 0,-149.78 121.5,-271.16 271.28,-271.16 149.73,0 271.18,121.38 271.18,271.16z"/>
   <path class="fil27" d="M2287.78 243.21c0,61.84 -50.14,111.92 -111.96,111.92 -61.92,0 -112.06,-50.08 -112.06,-111.92 0,-61.98 50.14,-112.06 112.06,-112.06 61.82,0 111.96,50.08 111.96,112.06z"/>
   <path class="fil28" d="M3408.04 667.66c0,185.65 150.52,336.04 336.12,336.04 185.65,0 336.05,-150.39 336.05,-336.04 0,-185.66 -150.4,-336.05 -336.05,-336.05 -185.6,0 -336.12,150.39 -336.12,336.05z"/>
   <path class="fil29" d="M1603.85 909.5c0,58.47 -47.56,106.11 -106.16,106.11 -58.6,0 -106.06,-47.64 -106.06,-106.11 0,-58.63 47.46,-106.27 106.06,-106.27 58.6,0 106.16,47.64 106.16,106.27z"/>
   <path class="fil30" d="M3413.98 777.74c0,247.49 -200.65,448.1 -448.11,448.1 -247.54,0 -448.14,-200.61 -448.14,-448.1 0,-247.49 200.6,-448.11 448.14,-448.11 247.46,0 448.11,200.62 448.11,448.11z"/>
   <path class="fil31" d="M3301.99 777.74c0,185.65 -150.48,336.19 -336.12,336.19 -185.64,0 -336.11,-150.54 -336.11,-336.19 0,-185.66 150.47,-336.05 336.11,-336.05 185.64,0 336.12,150.39 336.12,336.05z"/>
   <path class="fil32" d="M2217.06 774.84c0,115.57 -93.71,209.32 -209.27,209.32 -115.62,0 -209.35,-93.75 -209.35,-209.32 0,-115.73 93.73,-209.32 209.35,-209.32 115.56,0 209.27,93.59 209.27,209.32z"/>
   <path class="fil33" d="M2164.72 774.84c0,86.57 -70.26,156.95 -156.93,156.95 -86.77,0 -157.03,-70.38 -157.03,-156.95 0,-86.72 70.26,-156.95 157.03,-156.95 86.67,0 156.93,70.23 156.93,156.95z"/>
   <path class="fil34" d="M3781.5 1270.12c0,123.21 -99.88,223.06 -223.03,223.06 -123.21,0 -223.12,-99.85 -223.12,-223.06 0,-123.21 99.91,-223.21 223.12,-223.21 123.15,0 223.03,100 223.03,223.21z"/>
   <path class="fil35" d="M3725.76 1270.12c0,92.37 -74.92,167.33 -167.29,167.33 -92.42,0 -167.33,-74.96 -167.33,-167.33 0,-92.52 74.91,-167.33 167.33,-167.33 92.37,0 167.29,74.81 167.29,167.33z"/>
   <path class="fil36" d="M2599.57 374.36c0,64.89 -52.59,117.41 -117.48,117.41 -64.82,0 -117.36,-52.52 -117.36,-117.41 0,-64.88 52.54,-117.4 117.36,-117.4 64.89,0 117.48,52.52 117.48,117.4z"/>
   <path class="fil37" d="M2570.22 374.36c0,48.71 -39.47,88.1 -88.13,88.1 -48.59,0 -88.02,-39.39 -88.02,-88.1 0,-48.7 39.43,-88.09 88.02,-88.09 48.66,0 88.13,39.39 88.13,88.09z"/>
   <path class="fil38" d="M1848.76 1247.07c0,64.89 -52.57,117.41 -117.36,117.41 -64.88,0 -117.46,-52.52 -117.46,-117.41 0,-65.04 52.58,-117.41 117.46,-117.41 64.79,0 117.36,52.37 117.36,117.41z"/>
   <path class="fil39" d="M1819.43 1247.07c0,48.55 -39.42,87.94 -88.03,87.94 -48.65,0 -88.11,-39.39 -88.11,-87.94 0,-48.71 39.46,-88.1 88.11,-88.1 48.61,0 88.03,39.39 88.03,88.1z"/>
   <path class="fil40" d="M2399.1 2575.67c0,64.73 -52.58,117.4 -117.42,117.4 -64.89,0 -117.43,-52.67 -117.43,-117.4 0,-64.89 52.54,-117.41 117.43,-117.41 64.84,0 117.42,52.52 117.42,117.41z"/>
   <path class="fil41" d="M2369.74 2575.67c0,48.55 -39.47,88.09 -88.06,88.09 -48.65,0 -88.07,-39.54 -88.07,-88.09 0,-48.71 39.42,-88.1 88.07,-88.1 48.59,0 88.06,39.39 88.06,88.1z"/>
   <path class="fil42" d="M3177.37 2630.63c0,64.89 -52.56,117.41 -117.41,117.41 -64.89,0 -117.42,-52.52 -117.42,-117.41 0,-64.89 52.53,-117.41 117.42,-117.41 64.85,0 117.41,52.52 117.41,117.41z"/>
   <path class="fil43" d="M3148.07 2630.63c0,48.7 -39.46,88.09 -88.11,88.09 -48.61,0 -88.08,-39.39 -88.08,-88.09 0,-48.71 39.47,-88.1 88.08,-88.1 48.65,0 88.11,39.39 88.11,88.1z"/>
   <path class="fil44" d="M4006.79 1695.02c0,64.89 -52.58,117.56 -117.45,117.56 -64.85,0 -117.41,-52.67 -117.41,-117.56 0,-64.89 52.56,-117.41 117.41,-117.41 64.87,0 117.45,52.52 117.45,117.41z"/>
   <path class="fil45" d="M3977.4 1695.02c0,48.71 -39.42,88.1 -88.06,88.1 -48.66,0 -88.08,-39.39 -88.08,-88.1 0,-48.55 39.42,-88.09 88.08,-88.09 48.64,0 88.06,39.54 88.06,88.09z"/>
   <path class="fil46" d="M4148.28 1199.89c0,64.74 -52.6,117.41 -117.38,117.41 -64.89,0 -117.52,-52.67 -117.52,-117.41 0,-64.89 52.63,-117.56 117.52,-117.56 64.78,0 117.38,52.67 117.38,117.56z"/>
   <path class="fil47" d="M4118.92 1199.89c0,48.55 -39.38,88.1 -88.02,88.1 -48.64,0 -88.13,-39.55 -88.13,-88.1 0,-48.7 39.49,-88.09 88.13,-88.09 48.64,0 88.02,39.39 88.02,88.09z"/>
   <path class="fil48" d="M2258.29 251c0,42.29 -34.27,76.64 -76.59,76.64 -42.35,0 -76.66,-34.35 -76.66,-76.64 0,-42.29 34.31,-76.64 76.66,-76.64 42.32,0 76.59,34.35 76.59,76.64z"/>
   <path class="fil49" d="M2239.14 251c0,31.76 -25.74,57.41 -57.44,57.41 -31.77,0 -57.5,-25.65 -57.5,-57.41 0,-31.76 25.73,-57.41 57.5,-57.41 31.7,0 57.44,25.65 57.44,57.41z"/>
   <path class="fil50" d="M1586.14 915.3c0,42.29 -34.34,76.64 -76.65,76.64 -42.36,0 -76.64,-34.35 -76.64,-76.64 0,-42.29 34.28,-76.65 76.64,-76.65 42.31,0 76.65,34.36 76.65,76.65z"/>
   <path class="fil51" d="M1567.01 915.3c0,31.76 -25.73,57.4 -57.52,57.4 -31.69,0 -57.51,-25.64 -57.51,-57.4 0,-31.76 25.82,-57.56 57.51,-57.56 31.79,0 57.52,25.8 57.52,57.56z"/>
   <path class="fil52" d="M1576.31 1837.01c0,77.1 -62.48,139.55 -139.47,139.55 -77.09,0 -139.57,-62.45 -139.57,-139.55 0,-77.1 62.48,-139.54 139.57,-139.54 76.99,0 139.47,62.44 139.47,139.54z"/>
   <path class="fil53" d="M1541.46 1837.01c0,57.87 -46.88,104.74 -104.62,104.74 -57.82,0 -104.71,-46.87 -104.71,-104.74 0,-57.71 46.89,-104.58 104.71,-104.58 57.74,0 104.62,46.87 104.62,104.58z"/>
   <path class="fil54" d="M2755.55 2902.4c0,76.94 -62.44,139.54 -139.53,139.54 -77.05,0 -139.56,-62.6 -139.56,-139.54 0,-77.11 62.51,-139.7 139.56,-139.7 77.09,0 139.53,62.59 139.53,139.7z"/>
   <path class="fil55" d="M2720.68 2902.4c0,57.71 -46.84,104.58 -104.66,104.58 -57.77,0 -104.67,-46.87 -104.67,-104.58 0,-57.87 46.9,-104.74 104.67,-104.74 57.82,0 104.66,46.87 104.66,104.74z"/>
   <path class="fil56" d="M3746.14 2688.04c0,97.71 -79.16,176.95 -176.88,176.95 -97.68,0 -176.89,-79.24 -176.89,-176.95 0,-97.72 79.21,-176.8 176.89,-176.8 97.72,0 176.88,79.08 176.88,176.8z"/>
   <path class="fil57" d="M3701.92 2688.04c0,73.28 -59.4,132.67 -132.66,132.67 -73.28,0 -132.69,-59.39 -132.69,-132.67 0,-73.29 59.41,-132.68 132.69,-132.68 73.26,0 132.66,59.39 132.66,132.68z"/>
   <path class="fil58" d="M2399.82 1917.63c0,221.53 -179.51,400.93 -400.95,400.93 -221.4,0 -400.9,-179.4 -400.9,-400.93 0,-221.39 179.5,-400.94 400.9,-400.94 221.44,0 400.95,179.55 400.95,400.94z"/>
   <path class="fil59" d="M2299.57 1917.63c0,166.11 -134.59,300.77 -300.7,300.77 -166.02,0 -300.67,-134.66 -300.67,-300.77 0,-165.96 134.65,-300.63 300.67,-300.63 166.11,0 300.7,134.67 300.7,300.63z"/>
   <path class="fil60" d="M3034.6 1653.34c0,135.12 -109.51,244.59 -244.65,244.59 -135.13,0 -244.74,-109.47 -244.74,-244.59 0,-135.12 109.61,-244.74 244.74,-244.74 135.14,0 244.65,109.62 244.65,244.74z"/>
   <path class="fil61" d="M2973.52 1653.34c0,101.38 -82.2,183.52 -183.57,183.52 -101.36,0 -183.56,-82.14 -183.56,-183.52 0,-101.38 82.2,-183.52 183.56,-183.52 101.37,0 183.57,82.14 183.57,183.52z"/>
   <path class="fil62" d="M2433.24 1297.6c0,109.02 -88.45,197.57 -197.54,197.57 -109.07,0 -197.5,-88.55 -197.5,-197.57 0,-109.16 88.43,-197.56 197.5,-197.56 109.09,0 197.54,88.4 197.54,197.56z"/>
   <path class="fil63" d="M2383.85 1297.6c0,81.84 -66.31,148.1 -148.15,148.1 -81.85,0 -148.12,-66.26 -148.12,-148.1 0,-81.83 66.27,-148.09 148.12,-148.09 81.84,0 148.15,66.26 148.15,148.09z"/>
   <path class="fil64" d="M2889.19 2288.17c0,109.01 -88.43,197.57 -197.53,197.57 -109.04,0 -197.49,-88.56 -197.49,-197.57 0,-109.01 88.45,-197.41 197.49,-197.41 109.1,0 197.53,88.4 197.53,197.41z"/>
   <path class="fil65" d="M2839.77 2288.17c0,81.84 -66.28,148.1 -148.11,148.1 -81.79,0 -148.11,-66.26 -148.11,-148.1 0,-81.83 66.32,-148.09 148.11,-148.09 81.83,0 148.11,66.26 148.11,148.09z"/>
   <path class="fil66" d="M3789.33 1979.61c0,193.75 -157.07,350.86 -350.82,350.86 -193.73,0 -350.79,-157.11 -350.79,-350.86 0,-193.9 157.06,-350.85 350.79,-350.85 193.75,0 350.82,156.95 350.82,350.85z"/>
   <path class="fil67" d="M3701.67 1979.61c0,145.2 -117.84,263.07 -263.16,263.07 -145.3,0 -263.08,-117.87 -263.08,-263.07 0,-145.35 117.78,-263.21 263.08,-263.21 145.32,0 263.16,117.86 263.16,263.21z"/>
   <path class="fil68" d="M4416.33 1752.58c0,98.94 -80.15,179.09 -179.04,179.09 -98.97,0 -179.14,-80.15 -179.14,-179.09 0,-98.93 80.17,-179.09 179.14,-179.09 98.89,0 179.04,80.16 179.04,179.09z"/>
   <path class="fil69" d="M4371.57 1752.58c0,74.2 -60.13,134.36 -134.28,134.36 -74.25,0 -134.37,-60.16 -134.37,-134.36 0,-74.2 60.12,-134.35 134.37,-134.35 74.15,0 134.28,60.15 134.28,134.35z"/>
   <path class="fil70" d="M4000.65 667.66c0,134.81 -109.24,243.98 -243.98,243.98 -134.73,0 -243.96,-109.17 -243.96,-243.98 0,-134.67 109.23,-243.83 243.96,-243.83 134.74,0 243.98,109.16 243.98,243.83z"/>
   <path class="fil71" d="M3939.65 667.66c0,101.07 -81.87,183.06 -182.98,183.06 -100.99,0 -182.92,-81.99 -182.92,-183.06 0,-101.07 81.93,-182.91 182.92,-182.91 101.11,0 182.98,81.84 182.98,182.91z"/>
  </g>
 </g>
</svg>
