<?xml version="1.0" encoding="UTF-8"?>
<!DOCTYPE svg PUBLIC "-//W3C//DTD SVG 1.1//EN" "http://www.w3.org/Graphics/SVG/1.1/DTD/svg11.dtd">
<!-- Creator: CorelDRAW 2019 (64-Bit) -->
<svg xmlns="http://www.w3.org/2000/svg" xml:space="preserve" width="43.3492mm" height="43.3492mm" version="1.1" style="shape-rendering:geometricPrecision; text-rendering:geometricPrecision; image-rendering:optimizeQuality; fill-rule:evenodd; clip-rule:evenodd"
viewBox="0 0 4334.92 4334.92"
 xmlns:xlink="http://www.w3.org/1999/xlink"
 xmlns:xodm="http://www.corel.com/coreldraw/odm/2003">
 <defs>
  <style type="text/css">
   <![CDATA[
    .fil0 {fill:white;fill-rule:nonzero}
   ]]>
  </style>
 </defs>
 <g id="Слой_x0020_1">
  <metadata id="CorelCorpID_0Corel-Layer"/>
  <g id="_2566222291056">
   <path class="fil0" d="M2173.31 2072.97c254.56,0 474.98,-91.3 655.11,-271.43 180.09,-180.09 271.39,-400.46 271.39,-655.06 0,-254.51 -91.3,-474.89 -271.43,-655.06 -180.14,-180.09 -400.55,-271.39 -655.07,-271.39 -254.6,0 -474.97,91.3 -655.06,271.39 -180.09,180.09 -271.43,400.5 -271.43,655.06 0,254.6 91.34,474.97 271.48,655.11 180.13,180.08 400.54,271.38 655.06,271.38l-0.05 0zm0 0z"/>
   <path class="fil0" d="M3794.42 3177.96c-5.19,-74.95 -15.71,-156.73 -31.16,-243.05 -15.62,-86.97 -35.69,-169.23 -59.8,-244.39 -24.83,-77.67 -58.67,-154.39 -100.47,-227.9 -43.35,-76.29 -94.33,-142.75 -151.49,-197.44 -59.79,-57.2 -132.96,-103.2 -217.6,-136.73 -84.33,-33.37 -177.84,-50.28 -277.79,-50.28 -39.25,0 -77.24,16.09 -150.58,63.86 -45.13,29.43 -97.92,63.48 -156.85,101.12 -50.41,32.11 -118.65,62.18 -202.98,89.44 -82.26,26.61 -165.77,40.11 -248.24,40.11 -82.43,0 -165.94,-13.5 -248.28,-40.11 -84.25,-27.21 -152.49,-57.29 -202.81,-89.39 -58.37,-37.3 -111.2,-71.35 -157.03,-101.21 -73.25,-47.77 -111.24,-63.87 -150.53,-63.87 -100,0 -193.46,16.92 -277.79,50.33 -84.6,33.49 -157.81,79.48 -217.65,136.73 -57.16,54.69 -108.13,121.11 -151.45,197.4 -41.75,73.51 -75.54,150.18 -100.47,227.94 -24.01,75.16 -44.13,157.37 -59.75,244.35 -15.45,86.23 -25.97,168.01 -31.16,243.13 -5.1,73.6 -7.7,150.02 -7.7,227.17 0,200.81 63.82,363.33 189.69,483.23 124.32,118.3 288.83,178.32 488.87,178.32l1852.25 0c200.04,0 364.46,-59.97 488.82,-178.32 125.91,-119.81 189.74,-282.38 189.74,-483.28 -0.05,-77.49 -2.64,-153.95 -7.79,-227.21l0 0.05zm0 0z"/>
  </g>
 </g>
</svg>
