<?xml version="1.0" encoding="UTF-8"?>
<!DOCTYPE svg PUBLIC "-//W3C//DTD SVG 1.1//EN" "http://www.w3.org/Graphics/SVG/1.1/DTD/svg11.dtd">
<!-- Creator: CorelDRAW 2019 (64-Bit) -->
<svg xmlns="http://www.w3.org/2000/svg" xml:space="preserve" width="37.2532mm" height="127mm" version="1.1" style="shape-rendering:geometricPrecision; text-rendering:geometricPrecision; image-rendering:optimizeQuality; fill-rule:evenodd; clip-rule:evenodd"
viewBox="0 0 3725.32 12699.98"
 xmlns:xlink="http://www.w3.org/1999/xlink"
 xmlns:xodm="http://www.corel.com/coreldraw/odm/2003">
 <defs>
  <style type="text/css">
   <![CDATA[
    .fil5 {fill:url(#id1)}
    .fil1 {fill:url(#id2)}
    .fil10 {fill:url(#id3)}
    .fil7 {fill:url(#id4)}
    .fil2 {fill:url(#id5)}
    .fil8 {fill:url(#id6)}
    .fil0 {fill:url(#id7)}
    .fil6 {fill:url(#id8)}
    .fil3 {fill:url(#id9)}
    .fil9 {fill:url(#id10)}
    .fil4 {fill:url(#id11)}
    .fil11 {fill:url(#id12)}
    .fil12 {fill:url(#id13)}
   ]]>
  </style>
   <clipPath id="id0">
    <path d="M2563.03 12632.26l-1518.38 -1066.4 0 -2890.29 1518.38 0 0 3956.69 0 0z"/>
   </clipPath>
  <linearGradient id="id1" gradientUnits="userSpaceOnUse" x1="2289.08" y1="5578.36" x2="866.65" y2="5578.36">
   <stop offset="0" style="stop-opacity:1; stop-color:#7D3F8F"/>
   <stop offset="1" style="stop-opacity:1; stop-color:#362B5F"/>
  </linearGradient>
  <linearGradient id="id2" gradientUnits="userSpaceOnUse" x1="928.01" y1="8640.59" x2="2904.98" y2="8640.59">
   <stop offset="0" style="stop-opacity:1; stop-color:#544090"/>
   <stop offset="1" style="stop-opacity:1; stop-color:#2C213C"/>
  </linearGradient>
  <linearGradient id="id3" gradientUnits="userSpaceOnUse" xlink:href="#id2" x1="1086.9" y1="8250.12" x2="305.31" y2="8250.12">
  </linearGradient>
  <linearGradient id="id4" gradientUnits="userSpaceOnUse" xlink:href="#id2" x1="2673.88" y1="8263.6" x2="3455.5" y2="8263.6">
  </linearGradient>
  <linearGradient id="id5" gradientUnits="userSpaceOnUse" x1="718.08" y1="4560.16" x2="3678.81" y2="4560.16">
   <stop offset="0" style="stop-opacity:1; stop-color:#954994"/>
   <stop offset="1" style="stop-opacity:1; stop-color:#7FC4ED"/>
  </linearGradient>
  <linearGradient id="id6" gradientUnits="userSpaceOnUse" xlink:href="#id2" x1="3154.87" y1="9396.91" x2="3848.94" y2="8371.42">
  </linearGradient>
  <linearGradient id="id7" gradientUnits="userSpaceOnUse" x1="1124.9" y1="11622.03" x2="2980.82" y2="8972.25">
   <stop offset="0" style="stop-opacity:1; stop-color:#FEFEFE"/>
   <stop offset="1" style="stop-opacity:1; stop-color:#F19552"/>
  </linearGradient>
  <linearGradient id="id8" gradientUnits="userSpaceOnUse" x1="1849.95" y1="6116.14" x2="1262.56" y2="5028.14">
   <stop offset="0" style="stop-opacity:1; stop-color:#8364A7"/>
   <stop offset="1" style="stop-opacity:1; stop-color:#0099BB"/>
  </linearGradient>
  <linearGradient id="id9" gradientUnits="userSpaceOnUse" xlink:href="#id1" x1="2391.34" y1="1852.62" x2="2498.86" y2="286.66">
  </linearGradient>
  <linearGradient id="id10" gradientUnits="userSpaceOnUse" xlink:href="#id2" x1="2973.12" y1="7823.26" x2="3316.08" y2="6919.69">
  </linearGradient>
  <linearGradient id="id11" gradientUnits="userSpaceOnUse" xlink:href="#id1" x1="2308.42" y1="6182.49" x2="1601.41" y2="4802.35">
  </linearGradient>
  <linearGradient id="id12" gradientUnits="userSpaceOnUse" xlink:href="#id2" x1="605.86" y1="9383.43" x2="-88.08" y2="8358.16">
  </linearGradient>
  <linearGradient id="id13" gradientUnits="userSpaceOnUse" xlink:href="#id2" x1="787.73" y1="7809.78" x2="444.77" y2="6906.23">
  </linearGradient>
 </defs>
 <g id="Слой_x0020_1">
  <metadata id="CorelCorpID_0Corel-Layer"/>
  <path class="fil0" d="M1398.18 11813.73l0 -0.05 9.46 0 0 4.72 4.72 0 0 4.73 9.44 0 0 4.72 4.72 0 0 4.72 9.46 0 0 4.72 4.72 0 0 4.73 4.72 0 0 4.73 9.45 0 0 4.72 4.73 0 0 4.72 9.44 0 0 4.72 4.72 0 0 4.73 9.46 0 0 4.73 4.72 0 0 4.72 4.72 0 0 4.72 9.45 0 0 4.72 4.72 0 0 4.72 9.45 0 0 4.74 4.72 0 0 4.72 9.45 0 0 4.72 4.73 0 0 4.72 4.72 0 0 4.72 9.44 0 0 4.73 4.73 0 0 4.73 9.45 0 0 4.72 4.72 0 0 4.72 9.45 0 0 4.72 4.72 0 0 4.72 4.72 0 0 4.74 9.45 0 0 4.72 4.73 0 0 4.72 9.44 0 0 4.72 4.73 0 0 4.72 4.72 0 0 4.73 9.45 0 0 4.73 4.72 0 0 4.72 9.45 0 0 4.72 4.73 0 0 4.72 9.44 0 0 4.73 4.72 0 0 4.72 4.73 0 0 4.73 9.45 0 0 4.72 4.72 0 0 4.72 9.44 0 0 4.73 4.74 0 0 4.72 9.44 0 0 4.73 4.72 0 0 4.72 4.72 0 0 4.72 9.46 0 0 4.73 4.72 0 0 4.72 9.44 0 0 4.72 4.72 0 0 4.73 9.46 0 0 4.72 4.72 0 0 4.73 4.72 0 0 4.72 9.45 0 0 4.72 4.73 0 0 4.73 9.44 0 0 4.72 4.72 0 0 4.72 9.45 0 0 4.73 4.73 0 0 4.72 4.72 0 0 4.72 9.45 0 0 4.73 4.72 0 0 4.72 9.45 0 0 4.73 4.72 0 0 4.72 4.73 0 0 4.72 9.44 0 0 4.73 4.73 0 0 4.72 9.45 0 0 4.73 4.72 0 0 4.72 9.45 0 0 4.72 4.72 0 0 4.72 4.73 0 0 4.73 9.44 0 0 4.73 4.72 0 0 4.72 9.45 0 0 4.72 4.73 0 0 4.72 9.44 0 0 4.73 4.73 0 0 4.73 4.72 0 0 4.72 9.45 0 0 4.72 4.72 0 0 4.72 9.45 0 0 4.72 4.73 0 0 4.73 9.44 0 0 4.73 4.72 0 0 4.72 4.73 0 0 4.72 9.45 0 0 4.72 4.72 0 0 4.73 9.44 0 0 4.73 4.73 0 0 4.72 9.45 0 0 4.72 4.72 0 0 4.72 4.72 0 0 4.73 9.46 0 0 4.72 4.72 0 0 4.73 9.44 0 0 4.72 4.73 0 0 4.72 4.72 0 0 4.72 9.45 0 0 4.73 4.72 0 0 4.73 9.45 0 0 4.72 4.73 0 0 4.72 9.44 0 0 4.72 4.72 0 0 4.73 4.73 0 0 4.72 9.45 0 0 4.73 4.72 0 0 4.72 9.45 0 0 4.72 4.72 0 0 4.73 9.45 0 0 4.72 4.72 0 0 4.73 4.73 0 0 4.72 9.44 0 0 4.72 4.73 0 0 4.73 9.45 0 0 4.72 4.72 0 0 4.72 9.45 0 0 4.73 4.72 0 0 4.72 4.73 0 0 4.73 9.44 0 0 4.72 4.72 0 0 4.72 9.46 0 0 4.73 4.72 0 0 4.72 9.44 0 0 4.73 4.72 0 0 4.72 4.74 0 0 4.72 9.44 0 0 4.72 4.72 0 0 4.73 9.45 0 0 4.73 4.73 0 0 4.72 4.72 0 0 4.72 9.44 0 0 4.72 4.72 0 0 4.72 9.46 0 0 4.74 4.72 0 0 4.72 9.44 0 0 4.72 4.73 0 0 4.72 4.73 0 0 4.72 9.44 0 0 4.73 4.72 0 0 4.73 9.46 0 0 4.72 4.72 0 0 4.72 9.44 0 0 4.72 4.73 0 0 4.72 4.72 0 0 4.74 9.45 0 0 4.72 4.72 0 0 4.72 9.45 0 0 4.72 4.72 0 0 4.72 9.45 0 0 4.73 4.73 0 0 4.73 4.72 0 0 4.72 9.45 0 0 4.72 4.72 0 0 4.72 9.45 0 0 4.73 4.72 0 0 4.73 9.45 0 0 4.72 4.72 0 0 4.72 4.73 0 0 4.72 9.44 0 0 4.73 4.73 0 0 4.72 9.45 0 0 4.73 4.72 0 0 4.72 4.72 0 0 4.72 9.45 0 0 4.73 4.73 0 0 4.72 9.44 0 0 4.73 4.72 0 0 4.72 9.46 0 0 4.72 4.72 0 0 4.73 4.72 0 0 4.72 4.72 0 0 -3949.04 -1511.59 0 0 2890.92 9.45 0 0 4.72 4.72 0 0 4.73 9.45 0 0 4.73 4.72 0 0 4.72 9.45 0 0 4.72 4.73 0 0 4.72 4.72 0 0 4.73 9.44 0 0 4.73 4.73 0 0 4.72 9.45 0 0 4.72 4.72 0 0 4.72 9.44 0 0 4.72 4.73 0 0 4.74 4.73 0 0 4.72 9.44 0 0 4.72 4.72 0 0 4.72 9.46 0 0 4.72 4.72 0 0 4.73 4.72 0 0 4.73 -0.06 0 -131.59 -92.4 0 -2889.7 1518.72 0 0 3956.08 -1165.06 -818.05zm-0.07 -0.05l-221.94 -155.84 0 -0.04 9.44 0 0 4.72 4.73 0 0 4.72 9.45 0 0 4.72 4.72 0 0 4.73 9.45 0 0 4.73 4.73 0 0 4.72 4.72 0 0 4.72 9.44 0 0 4.72 4.73 0 0 4.73 9.45 0 0 4.72 4.72 0 0 4.73 9.45 0 0 4.72 4.72 0 0 4.72 4.73 0 0 4.72 9.44 0 0 4.73 4.73 0 0 4.73 9.44 0 0 4.72 4.73 0 0 4.72 9.45 0 0 4.72 4.72 0 0 4.73 4.72 0 0 4.72 9.45 0 0 4.73 4.72 0 0 4.72 9.45 0 0 4.72 4.72 0 0 4.73 9.45 0 0 4.72 4.73 0 0 4.72 4.72 0 0 4.73 9.44 0 0 4.72 4.73 0 0 4.73 9.45 0 0 4.72 4.72 0 0 4.72 4.72 0 0 4.73 -0.07 0zm-353.59 -248.28l131.59 92.4 -131.59 -92.4zm131.65 92.44l221.94 155.84 -221.94 -155.84zm222.01 155.89l1165.06 818.05 -1165.06 -818.05z"/>
  <g style="clip-path:url(#id0)">
   <image x="1019.81" y="8648.31" width="1564.5" height="4006.67" xlink:href="2_Images\2_ImgID1.png"/>
  </g>
  <path class="fil1" d="M927.94 8178.3c21.68,106.28 62.73,401.04 96.46,520.08 0,0 250.12,325.93 640.58,418.99 389.9,92.59 893.31,-14.64 893.31,-14.64 122.11,-83.62 241.24,-311.3 346.58,-617.4l-1976.93 -307.03z"/>
  <path class="fil2" d="M3678.76 4957.18c0,1397.75 -443.51,3467.69 -922.93,3794.57 0,0 -577.85,241.86 -1066.15,98.73 -406.56,-119.04 -732.64,-539.92 -732.64,-539.92 -289.43,-732.18 -280.92,-3093.11 -248.42,-3649.08 134.34,-2311.8 1487.31,-4731.3 1769.5,-4520.62 431.76,322.16 1200.64,2571.6 1200.64,4816.32z"/>
  <path class="fil3" d="M3310.87 2086.09c-256.97,-1014.66 -594.15,-1768.56 -830.43,-1945.23 -146.06,-108.65 -579.41,487.01 -981.92,1408.62 180.92,341.52 668.31,912.15 1812.35,536.61z"/>
  <path class="fil4" d="M2409.02 5032.76c-298.68,-445.92 -796.43,-636.29 -1112.06,-425.13 -10.02,6.61 -19.75,13.69 -29.43,21.25l-0.66 -0.47 -221.55 136.99c315.88,-202.18 807.53,-11.34 1103.61,430.8 290.22,433.64 285.46,948.53 -4.49,1171.01l230.29 -141.7 3.87 -2.84c315.35,-211.16 329.1,-743.99 30.42,-1189.91z"/>
  <path class="fil5" d="M2148.93 5196.2c298.63,445.92 285.07,978.76 -30.42,1189.91 -315.4,211.15 -813.24,20.79 -1111.83,-425.61 -298.73,-445.92 -285.08,-978.29 30.42,-1189.91 315.22,-211.15 813.19,-20.78 1111.83,425.61z"/>
  <path class="fil6" d="M1983.41 5302.01c220.17,328.3 210.11,721.32 -22.49,877.2 -232.4,155.41 -599.25,15.12 -819.38,-313.66 -220.17,-328.77 -210.11,-721.78 22.4,-877.19 232.4,-155.89 599.39,-15.12 819.47,313.65z"/>
  <polygon class="fil7" points="3455.42,9718.7 2673.83,8441.88 2673.83,6808.89 3455.42,8085.23 "/>
  <polygon class="fil8" points="3455.42,9718.7 3600.39,9606.28 3600.39,7973.29 3455.42,8085.23 "/>
  <polygon class="fil9" points="2819.04,6695.98 2673.83,6808.89 3455.27,8085.7 3600.39,7973.29 "/>
  <polygon class="fil10" points="305.26,9705.01 1086.84,8428.18 1086.84,6795.18 305.26,8072.01 "/>
  <polygon class="fil11" points="305.26,9705.01 160.38,9593.05 160.38,7960.06 305.26,8072.01 "/>
  <polygon class="fil12" points="941.64,6682.76 1086.84,6795.18 305.3,8072.48 160.38,7960.06 "/>
 </g>
</svg>
