<?xml version="1.0" encoding="UTF-8"?>
<!DOCTYPE svg PUBLIC "-//W3C//DTD SVG 1.1//EN" "http://www.w3.org/Graphics/SVG/1.1/DTD/svg11.dtd">
<!-- Creator: CorelDRAW 2019 (64-Bit) -->
<svg xmlns="http://www.w3.org/2000/svg" xml:space="preserve" width="131.233mm" height="165.1mm" version="1.1" style="shape-rendering:geometricPrecision; text-rendering:geometricPrecision; image-rendering:optimizeQuality; fill-rule:evenodd; clip-rule:evenodd"
viewBox="0 0 13123.32 16509.98"
 xmlns:xlink="http://www.w3.org/1999/xlink"
 xmlns:xodm="http://www.corel.com/coreldraw/odm/2003">
 <defs>
  <style type="text/css">
   <![CDATA[
    .fil2 {fill:#F6B092;fill-rule:nonzero}
    .fil32 {fill:#2F95CD;fill-rule:nonzero}
    .fil12 {fill:white;fill-rule:nonzero}
    .fil30 {fill:url(#id39)}
    .fil36 {fill:url(#id40)}
    .fil35 {fill:url(#id41)}
    .fil13 {fill:url(#id42)}
    .fil0 {fill:url(#id43)}
    .fil8 {fill:url(#id44)}
    .fil39 {fill:url(#id45)}
    .fil27 {fill:url(#id46)}
    .fil44 {fill:url(#id47)}
    .fil16 {fill:url(#id48)}
    .fil7 {fill:url(#id49)}
    .fil10 {fill:url(#id50)}
    .fil19 {fill:url(#id51)}
    .fil15 {fill:url(#id52)}
    .fil33 {fill:url(#id53)}
    .fil4 {fill:url(#id54)}
    .fil21 {fill:url(#id55)}
    .fil28 {fill:url(#id56)}
    .fil26 {fill:url(#id57)}
    .fil23 {fill:url(#id58)}
    .fil42 {fill:url(#id59)}
    .fil34 {fill:url(#id60)}
    .fil9 {fill:url(#id61)}
    .fil20 {fill:url(#id62)}
    .fil22 {fill:url(#id63)}
    .fil29 {fill:url(#id64)}
    .fil38 {fill:url(#id65)}
    .fil24 {fill:url(#id66)}
    .fil40 {fill:url(#id67)}
    .fil25 {fill:url(#id68)}
    .fil43 {fill:url(#id69)}
    .fil5 {fill:url(#id70)}
    .fil6 {fill:url(#id71)}
    .fil3 {fill:url(#id72)}
    .fil17 {fill:url(#id73)}
    .fil14 {fill:url(#id74)}
    .fil18 {fill:url(#id75)}
    .fil37 {fill:url(#id76)}
    .fil41 {fill:url(#id77)}
    .fil1 {fill:url(#id78)}
    .fil31 {fill:url(#id79)}
    .fil45 {fill:url(#id80)}
    .fil11 {fill:url(#id81)}
   ]]>
  </style>
   <clipPath id="id0">
    <path d="M6125.16 14786.36c0,0 -58.89,-1118.15 -355.98,-1370.9 -296.57,-254.04 -1102.67,-450.34 -1102.67,-450.34l0 0c-61.53,-164.87 -101.49,-300.22 -109.9,-385.55 130.4,209.14 706.19,674.87 1579.07,674.87 70.46,0 143.03,-2.57 217.17,-8.98l0 0 0 1.92c-0.53,54.53 -15.78,1111.74 -227.69,1538.98l0 0zm221.38 -1546.03c-7.36,-5.78 -21.56,-16.04 -41.54,-30.15 1.58,0 2.63,0 4.21,0 0.52,0 0.52,0 1.05,0 17.35,14.11 29.44,24.37 36.28,30.15l0 0z"/>
   </clipPath>
   <clipPath id="id1">
    <path d="M6135.66 13254.72c-872.56,0 -1448.39,-465.67 -1579.15,-674.94l0 0c-18.67,-29.69 -28.28,-54.2 -28.28,-71.17 0,-16.26 9.07,-25.69 26.15,-27.1 22.95,-1.89 45.9,-2.59 69.38,-2.59 21.88,0 43.76,0.7 66.17,2.12 291.39,487.11 905.65,718.06 1614.9,729.14 20.28,14.14 34.16,24.51 41.63,30.16l0 0 6.4 4.72c-74.18,6.6 -146.76,9.66 -217.2,9.66l0 0z"/>
   </clipPath>
   <clipPath id="id2">
    <path d="M6607.87 14838.79l0 0c-147.24,-239.82 -209.81,-773.17 -236.1,-1156.48 -16.83,-248.99 -18.93,-434.42 -18.93,-435.08l0 0 0 0c74.67,6.55 147.76,9.83 218.75,9.83 873.93,0 1450.24,-467.83 1578.54,-676.2 -9.46,95.67 -58.36,255.54 -133.56,447.52l0 0c-140.4,30.15 -883.4,202.47 -1146.31,657.2 -219.8,380.04 -257.13,912.74 -262.39,1153.21zm-248.72 -1596.14c7.36,-6.56 20.51,-17.04 38.91,-32.11 1.58,0 3.68,0 5.26,0 -21.03,15.07 -36.28,26.21 -44.17,32.11l0 0z"/>
   </clipPath>
   <clipPath id="id3">
    <path d="M6571.52 13256.84c-70.98,0 -144.09,-3.06 -218.81,-9.66l6.41 -4.71 0 0c8,-6.13 22.95,-16.97 44.29,-32.05 19.21,-0.48 38.96,-0.95 58.17,-1.89 676.17,-24.51 1203.97,-293.17 1494.82,-720.19 42.7,-4.71 84.86,-7.54 125.42,-7.54 23.48,0 46.96,0.94 69.38,2.83 17.61,1.18 26.68,11.07 26.15,27.34 0,16.96 -9.08,41 -27.22,69.99l0 0c-128.08,208.09 -704.99,675.88 -1578.61,675.88l0 0z"/>
   </clipPath>
   <clipPath id="id4">
    <path d="M2436.41 11714.13c282.43,-321 247.45,-1131.19 -101.53,-1131.19 -6.83,0 -14.51,0.91 -21.34,0.91 -148.46,13.56 -242.32,105.79 -300.34,202.54 16.21,-44.3 36.69,-87.71 63.14,-129.3 70.82,-114.84 212.46,-272.17 401.03,-450.31 -13.65,25.32 -110.07,217.02 93.86,290.26 24.74,9.04 61.43,12.66 106.65,12.66 362.63,0 1321.69,-270.36 1772.21,-752.32 75.94,-81.38 140.78,-162.76 193.68,-240.52 -72.52,277.6 -125.42,595.88 -157.85,921.41 -370.31,386.1 -1054.62,966.61 -2049.51,1275.86zm2390.81 -2719.91c-13.65,-137.45 -101.53,-223.35 -259.38,-223.35 -23.9,0 -49.49,1.81 -76.8,5.43 162.97,-82.29 321.68,-152.82 469.29,-205.26 0,0 5.12,59.68 8.53,161.85 -46.93,75.05 -89.59,152.82 -128.84,234.2l-0.85 0.9c-4.27,9.04 -7.68,17.18 -11.95,26.23l0 0z"/>
   </clipPath>
   <clipPath id="id5">
    <path d="M2344.04 11795.35c111.11,-244.6 154.83,-454.36 134.78,-529.43 3.86,-174.56 -61.11,-312.49 -238.17,-344.81 -10.87,-1.8 -22.7,-2.88 -35.02,-2.88 -71.74,0 -169.08,32.33 -279.95,96.98 6.28,-31.25 29.23,-132.18 87.44,-229.16l0 0c58.21,-96.62 152.17,-188.57 300.24,-201.86 7.25,-0.71 14.25,-1.07 21.25,-1.07 349.76,0 384.06,809.59 101.94,1131.42l0 0c-19.33,23.34 -42.27,44.18 -65.7,62.14 -8.94,6.46 -17.88,12.57 -26.81,18.67l0 0z"/>
   </clipPath>
   <clipPath id="id6">
    <path d="M1628.53 12035.26c19.16,-101.09 44,-195.81 71.26,-282.24 -45.96,159.83 -70.97,281.76 -70.97,281.76 -0.11,0.19 -0.22,0.29 -0.29,0.48l0 0z"/>
   </clipPath>
   <clipPath id="id7">
    <path d="M1851.06 12454.14c-136.41,-38.74 -243.84,-284.48 -243.84,-284.48 5.84,-46.13 13,-90.77 21.26,-134.31 0.12,-0.37 0.23,-0.37 0.34,-0.37 0,0 25.01,-122.14 70.95,-281.91 101.93,-322.49 237.79,-530.6 237.79,-530.6 -201.31,426.55 -86.5,1231.67 -86.5,1231.67l0 0z"/>
   </clipPath>
   <clipPath id="id8">
    <path d="M6308.63 13210.61c-1.09,0 -2.18,0 -3.28,0 -710.27,-10.98 -1324.23,-242.75 -1615.34,-729.49 -55.82,-92.71 -99.59,-195.18 -130.23,-307.41 -75.52,-274.47 -110.54,-638 -109.45,-1029.58 0,-624.58 89.75,-1317.47 249.53,-1822.5 38.3,-123.21 85.36,-241.54 138.99,-353.77l1.09 -1.22c0,0 -395.08,1311.37 -226.54,2383.65 -5.47,34.16 -12.04,68.31 -16.42,102.47 -20.79,142.73 -20.79,279.35 -2.18,408.66 60.19,789.27 784.68,1329.67 1713.83,1349.19zm153.22 -2.44c1010.14,-39.03 1573.76,-664.83 1586.89,-1460.2 1.09,-26.83 1.09,-53.67 0,-81.73 180.58,-561.15 134.61,-1277.22 84.27,-1687.1 7.66,8.54 16.41,17.08 24.07,25.62 0,0 -20.79,-117.11 -62.38,-289.11 -4.37,-25.62 -7.66,-43.92 -9.85,-54.9 110.54,459.9 168.54,946.63 167.45,1413.85 0,290.33 -21.89,573.34 -66.76,839.28 -126.95,751.45 -780.31,1260.14 -1723.69,1294.29l0 0z"/>
   </clipPath>
   <clipPath id="id9">
    <path d="M5771.15 8922.01c-96.14,0 -187.71,-3.63 -271.65,-11.35 -589.08,-53.87 -499.8,-212.81 -495.23,-232.85l0.77 -0.97c119.04,-179.71 259.44,-335.99 415.87,-461.11 160.24,10.87 324.3,16.18 489.89,16.18 428.07,0 867.6,-35.02 1286.52,-100.72 138.12,86.71 258.68,192.99 361.69,313.52 -1.52,3.14 -3.81,6.04 -6.1,8.94 -20.6,-17.63 -45.02,-35.51 -70.97,-48.79 0,0 7.64,38.4 22.9,104.11 -269.37,254.83 -1104.16,413.04 -1733.69,413.04l0 0z"/>
   </clipPath>
   <clipPath id="id10">
    <path d="M6339.13 13024.21c-3.47,0 -6.25,0 -9.02,0 -895.14,-3.43 -1135.42,-421.91 -1135.42,-421.91 97.22,-112.8 266.67,-157.08 478.47,-157.08 261.11,0 586.11,67.78 912.5,157.08 136.11,37.42 263.2,51.7 377.78,51.7 381.25,0 625,-159.25 625,-159.25 0,0 -361.11,529.46 -1249.31,529.46l0 0z"/>
   </clipPath>
   <clipPath id="id11">
    <path d="M7770.81 11388.62c-156.92,0 -340.44,-227.09 -1086.06,-299.81 -277.5,-27.21 -544.36,-28.03 -783.74,-28.03 -5.32,0 -11.52,0 -17.73,0 -456.59,0 -805.9,0 -922.04,-183.61 -41.67,-67.03 275.72,-873.01 1370.65,-873.01 51.42,0 105.5,2.04 160.47,5.69 1224.37,83.69 1497.44,1317.42 1324.56,1371.45 -15.08,4.88 -31.03,7.32 -46.11,7.32l0 0z"/>
   </clipPath>
   <clipPath id="id12">
    <path d="M6702.51 4809.5c-309.28,-92.05 -628.07,-166.06 -947.9,-166.06 -22.17,0 -45.39,0.46 -67.56,0.92 -301.89,10.18 -568.95,20.35 -792.73,20.35 -495.06,0 -773.73,-51.34 -736.78,-272.91 46.44,-278.94 847.62,-1115.73 2200.85,-1150.89 14.78,-0.46 29.56,-0.46 44.34,-0.46 520.39,0 1003.84,233.13 1393.34,524.56 -476.06,208.16 -863.45,580.07 -1093.56,1044.49l0 0z"/>
   </clipPath>
   <clipPath id="id13">
    <path d="M6063.6 7880.68c-926.02,0 -1305.03,-205.56 -1250.55,-411.12 36.06,-136.41 300.74,-201.15 662.87,-201.15 280.8,0 620.67,38.81 959.02,112.96 295.37,64.75 543.18,96.25 750.33,107.78 72.12,100.86 143.47,193.46 210.22,274.73 -243.98,47.84 -563.91,87.6 -978.97,107.78 -125.82,6.14 -243.2,9.02 -352.92,9.02l0 0z"/>
   </clipPath>
   <clipPath id="id14">
    <path d="M3889.45 7058.54c-86.06,0 -175.98,-49.43 -239.69,-210.49 0,0 -53.67,-360.39 9.68,-843.56 59.31,-453.41 177.22,-756.39 255.35,-756.39 5.28,0 10.38,1.59 15.14,4.25 77.43,43.59 65.46,517.19 111.04,983.89 35.55,363.05 105.41,703.77 105.41,703.77 0,0 -123.54,118.53 -256.93,118.53l0 0z"/>
   </clipPath>
   <clipPath id="id15">
    <path d="M3761.78 7789.95c-323.68,-191.89 -487.56,-515.77 -487.56,-515.77l0 0 311.68 -149.23c109.26,171.5 291.26,313.58 524.32,427.5 -291.51,175.71 -348.44,237.5 -348.44,237.5l0 0z"/>
   </clipPath>
   <clipPath id="id16">
    <path d="M4110.4 7552.51c-233.19,-114 -415.24,-255.99 -524.75,-427.7l100.87 -48.43c0,0 317.82,-24.84 601.1,-24.84 239.74,0 454.62,17.92 430.09,84.28 -35.93,61.32 -288.8,228.78 -529.59,370.46 -27.63,16.19 -53.54,31.6 -77.72,46.23l0 0z"/>
   </clipPath>
   <clipPath id="id17">
    <path d="M9161.39 3707.39c-68.42,-22.95 -138.55,-42.48 -210.01,-58.02 -11.81,-201.56 41.55,-483.37 175.13,-515.73 24.4,-5.79 48.03,-8.5 70.71,-8.5 170.56,0 289.28,147.15 289.28,147.15l76.42 124.55c0,0 -31.63,-4.52 -75.47,-4.52 -56.21,0 -132.44,7.41 -185.99,40.85 -53.36,33.26 -93.38,166.31 -140.07,274.22l0 0z"/>
   </clipPath>
   <clipPath id="id18">
    <path d="M7576.84 8062.27c-30.13,-31.38 -116.24,-122.33 -225.78,-253.44 157.92,-26.93 311.28,-58.99 457.64,-96.19 176.79,64.7 365.14,105.66 561.1,119.13 -94.63,32.63 -289.37,99.04 -471.03,155.64 -104.67,27.16 -212.09,52.03 -321.93,74.86l0 0z"/>
   </clipPath>
   <clipPath id="id19">
    <path d="M7351.1 7808.84c-16.3,-19.22 -32.6,-39.48 -49.92,-60.44 149.42,-29.35 268.61,-62.19 361.65,-95.73 47.88,22.01 96.44,41.92 146.02,60.09 -146.7,37.03 -299.85,69.18 -457.75,96.08zm-68.93 -313.74c-55.35,0 -114.78,-1.4 -178.28,-5.24 -177.26,-247.36 -357.57,-547.48 -452.99,-847.6 158.92,346.59 411.9,641.46 726.35,851.44 -30.56,1.05 -62.14,1.4 -95.08,1.4l0 0z"/>
   </clipPath>
   <clipPath id="id20">
    <path d="M7270.73 7777.83c-72.4,-89.16 -151.2,-190.73 -230.41,-301.47 74.05,4.1 143.36,5.94 208.13,5.94 38.37,0 75.29,-0.54 110.56,-1.84 105.41,70.48 217,132.66 333.34,185.87 -108.71,38.86 -247.32,77.18 -421.62,111.5l0 0z"/>
   </clipPath>
   <clipPath id="id21">
    <path d="M3637.01 3854.54c-88.89,0 -191.21,-336.5 -362.72,-364.46 -25.07,-4.21 -48.36,-5.94 -69.63,-5.94 -131.2,0 -190.54,67.3 -190.54,67.3 0.45,-0.99 0.9,-1.98 1.35,-2.97 25.97,-51.22 52.84,-98.23 79.93,-141.03 133.44,-194.23 335.85,-367.18 335.85,-367.18 243.6,175.92 311.22,774.69 218.97,811.8 -4.25,1.74 -8.73,2.48 -13.21,2.48l0 0z"/>
   </clipPath>
   <clipPath id="id22">
    <path d="M10745.86 8707.96l0 -0.07 0 0 0 0.07 0 0z"/>
   </clipPath>
   <clipPath id="id23">
    <path d="M9528.96 7565.96c0,0 0,0 0,-0.07 0,0.07 0,0.07 0,0.07l0 0 0 0z"/>
   </clipPath>
   <clipPath id="id24">
    <path d="M10218.1 8255.75c-19.34,-17.6 -39.11,-35.56 -58.88,-53.52 -68.33,-64.66 -134.52,-128.59 -196.83,-190.37 -48.14,-84.77 -322.33,-341.22 -366.59,-381.81l-4.73 -4.67 -1.29 -1.43c-1.72,0.71 -3.01,1.43 -4.29,2.15 -22.35,-23.71 -41.26,-43.82 -56.73,-59.98 0,0 0,0 0,-0.36 0,0 0,0 0,0 0,0 422.02,-299.56 618,-512.91l0 0 0 0 0 0c114.31,502.85 679.45,784.09 679.45,784.09l66.61 76.51 100.57 116.37c-25.79,-19.75 -790.34,-604.86 -932.16,-652.27 0,0 -113.88,145.82 -163.74,315.72 -23.63,81.17 167.61,315.36 374.76,538.41 -0.43,0 -0.86,0 -1.72,0 0,0 -18.05,8.98 -52.43,24.07l0 0z"/>
   </clipPath>
   <clipPath id="id25">
    <path d="M9278.28 10043.29c-479.86,0 -991.24,-222.02 -1193.81,-383.2 -0.9,-1.04 -2.7,-2.6 -3.6,-3.64 -256.58,-208.5 -401.53,-753.93 -417.74,-1079.42 -0.9,-19.75 -0.9,-38.47 -0.9,-56.15 0,-120.63 20.71,-199.14 64.82,-199.14 144.95,0 286.3,109.71 745.46,167.94 -9.01,-0.52 -62.13,-4.16 -129.65,-4.16 -128.74,0 -313.3,13 -359.22,85.79 -63.02,100.87 539.28,1002.99 1218.11,1002.99 93.64,0 189.07,-17.16 284.5,-56.16 785.07,-320.81 625.71,-1166.76 491.57,-1169.36l-0.9 0c107.13,-36.92 189.96,-70.72 239.48,-92.56 8.1,7.28 16.2,14.56 23.41,21.84l-25.21 -11.44c0,0 -40.52,615.62 196.26,700.38 36.92,13 71.13,18.71 103.54,18.71 173.76,0 274.59,-163.78 274.59,-163.78l0 0 0 0c0,0 -442.95,836.6 -1006.54,1115.29 -152.15,75.4 -325.91,106.07 -504.17,106.07l0 0z"/>
   </clipPath>
   <clipPath id="id26">
    <path d="M10514.14 8985.72c-32.02,0 -66.51,-5.59 -103.1,-18.8 -236.88,-84.41 -196.1,-700.14 -196.1,-700.14l24.97 11.2c166.75,154.26 342.26,306.96 505.96,430.11 27.83,65.82 42.31,111.95 42.88,113.51l0 0.23c0,0 -100.62,163.89 -274.61,163.89l0 0z"/>
   </clipPath>
   <clipPath id="id27">
    <path d="M10745.99 8707.99c-163.9,-123.11 -339.41,-275.66 -506.05,-430.06 -7.73,-7.2 -15.63,-14.41 -23.37,-21.61 0.65,-0.31 1.13,-0.46 1.62,-0.77 282.19,253.13 524.41,449.68 527.64,452.29 0,0.15 0,0.15 0.16,0.15zm-0.16 -0.15c-3.39,-3.22 -247.71,-233.05 -473.49,-476.21 0,0 0,0 0.16,0 238.68,0 400.97,304.8 473.33,476.21l0 0z"/>
   </clipPath>
   <clipPath id="id28">
    <path d="M10745.83 8707.84c-3.23,-2.61 -245.45,-199.16 -527.64,-452.29 34.16,-14.87 52.53,-23.92 52.53,-23.92 0.49,0 1.13,0 1.62,0 225.78,243.16 470.1,472.99 473.49,476.21l0 0 0 0z"/>
   </clipPath>
   <clipPath id="id29">
    <path d="M9740.71 8102.76c-88.93,0 -179.39,-26.25 -220.93,-106.6 -9.66,-18.58 -17.33,-36.71 -23.62,-54.55 33.73,42.17 75.74,62.36 114.84,62.36 48.76,0 93.37,-30.96 112.84,-88.75 33.89,-101 -98.28,-252.42 -128.02,-285 48.45,44.38 374.1,349.13 373.79,401.18 0,0.88 -0.15,1.47 -0.31,2.21 -6.13,27.28 -116.21,69.15 -228.59,69.15l0 0z"/>
   </clipPath>
   <clipPath id="id30">
    <path d="M10994.14 8030.54l-101.6 -117 -66.35 -76.64c0,0 -565.3,-281.12 -679.34,-783.96 13.99,26.91 285.63,449.6 576.44,488.8 7,0.88 13.48,1.46 19.96,1.46 188.69,0 108.86,-399.87 102.12,-427.37l0.77 0c95.91,248.06 156.04,576.56 156.3,793.9 0,45.64 -2.85,86.59 -8.3,120.81l0 0z"/>
   </clipPath>
   <clipPath id="id31">
    <path d="M8511.41 7351.29c-915.84,0 -1663.28,-723.79 -1701.94,-1630.41 0,-0.94 0,-1.87 0,-2.81 38.66,-907.56 786.1,-1630.41 1701.94,-1630.41 212.2,0 414.96,38.44 602.25,109.69 47.25,64.69 90.21,130.32 131.45,195.95 -207.91,-114.38 -442.46,-193.14 -686.45,-193.14 -44.67,0 -90.21,2.81 -136.6,8.44 -862.57,108.76 -1432.18,826.93 -1419.29,1096.94 7.73,155.64 141.76,260.64 401.22,260.64 36.94,0 76.46,-2.81 118.56,-6.56 -2.58,75.94 -0.86,153.76 6.87,231.58 19.76,216.57 344.51,317.83 696.76,317.83 370.28,0 770.64,-111.57 880.61,-317.83 75.6,-143.45 20.62,-427.53 -109.11,-695.67 55.84,-4.69 109.97,-6.56 162.37,-6.56 157.23,0 302.42,19.69 426.13,43.12 157.23,479.1 195.89,933.81 195.03,1272.27 -3.44,129.38 -11.17,265.33 -25.78,406.9 -303.27,324.39 -732.84,530.66 -1210.52,539.09 0,0 -0.85,0.94 -0.85,0.94 0,0 -0.86,0 -0.86,0 -10.31,0 -21.48,0 -31.79,0l0 0z"/>
   </clipPath>
   <clipPath id="id32">
    <path d="M9760.21 6806.18c10.43,-99.69 20.53,-237.14 21.18,-402.53 0.98,-338.34 -38.12,-792.23 -195.18,-1271.8 23.78,4.53 46.59,9.07 69.08,13.6 137.83,28.7 244.71,57.39 306.3,57.39 28.67,0 47.57,-6.04 55.39,-21.14 41.38,-77.03 -292.29,-525.64 -772.27,-788.45 -40.73,-65.71 -84.07,-131.41 -130.99,-196.36 614.56,232.61 1059.34,809.6 1098.45,1496.09 0,5.29 0,11.33 0,17.37 0,14.35 0,29.46 -0.66,43.81 -25.09,405.55 -191.92,772.59 -451.3,1052.02l0 0z"/>
   </clipPath>
   <clipPath id="id33">
    <path d="M8226.24 6108.75c-352.31,0 -677.38,-101.02 -696.84,-317.97 -7.3,-77.9 -9.73,-155.19 -7.3,-231.26 235.04,-24.65 549.39,-120.5 941.61,-314.02 182.48,-89.77 363.5,-133.58 533.82,-149.41 130.42,267.17 184.92,551.98 109.49,694.69 -109.98,206.3 -510.46,317.97 -880.78,317.97l0 0z"/>
   </clipPath>
   <clipPath id="id34">
    <path d="M6809.42 5717.5c0,-2.43 0,-4.86 0,-7.3 0,-906.57 762,-1640.88 1701.5,-1640.88 933.62,0 1691.69,725.06 1701.5,1623.36 -39.23,-686.13 -484.46,-1263.26 -1098.37,-1495.87 -187.32,-70.56 -390.32,-109.48 -603.13,-109.48 -915.96,0 -1663.25,723.6 -1701.5,1630.17l0 0z"/>
   </clipPath>
   <clipPath id="id35">
    <path d="M8510.92 7351.32c-935.58,0 -1694.63,-729.05 -1701.5,-1630.24 38.25,906.91 785.54,1629.76 1701.5,1630.24 0,0 0,0 0,0zm32.36 -0.48c0,0 0.99,0 0.99,0 0,0 -0.99,0 -0.99,0zm0.99 0c478.57,-9.06 907.13,-215.04 1211.15,-539.75 1.96,-1.44 2.94,-3.34 4.9,-4.77 259.88,-279.42 426.6,-646.57 451.12,-1051.86 -23.54,874.96 -758.07,1579.22 -1667.17,1596.38l0 0z"/>
   </clipPath>
   <clipPath id="id36">
    <path d="M7403.27 5565.75c-259.12,0 -393.2,-104.4 -400.74,-260.39 -12.8,-269.74 557.42,-987.97 1419.9,-1096.84 45.95,-5.69 91.15,-8.53 136.34,-8.53 244.06,0 478.32,79.22 686.22,192.96 150.66,244.96 261.39,495.2 341.23,738.95 -124.29,-23.16 -268.91,-43.47 -425.59,-43.47 -53.48,0 -107.72,2.44 -162.71,7.72 -154.41,-317.68 -415.8,-610.98 -690.74,-610.98 -18.08,0 -36.15,1.22 -54.23,4.06 -461,65.81 -713.34,534.61 -730.67,1070.03 -42.18,4.46 -81.35,6.49 -119.01,6.49l0 0z"/>
   </clipPath>
   <clipPath id="id37">
    <path d="M9961.8 5202.6c-61.86,0 -168.5,-28.48 -306.56,-56.95 -22.27,-4.67 -45.28,-9.09 -69.04,-13.75 -79.91,-243.75 -190.27,-494.12 -341.45,-738.85 480.01,263.38 813.79,711.36 772.23,788.68 -7.92,14.97 -26.97,20.87 -55.18,20.87l0 0z"/>
   </clipPath>
   <clipPath id="id38">
    <path d="M7522.4 5559.32c16.99,-535.69 269.66,-1004.42 730.58,-1070.09 18.29,-2.58 36.16,-3.86 54.45,-3.86 274.89,0 535.85,292.95 690.5,610.7 -170.77,15.77 -351.57,59.55 -534.1,149.37 -392.52,193.48 -706.62,289.42 -941.43,313.88l0 0z"/>
   </clipPath>
  <linearGradient id="id39" gradientUnits="userSpaceOnUse" x1="2389.56" y1="5745.66" x2="2389.56" y2="5012.04">
   <stop offset="0" style="stop-opacity:1; stop-color:#CBC1F7"/>
   <stop offset="1" style="stop-opacity:1; stop-color:#E8DCF7"/>
  </linearGradient>
  <linearGradient id="id40" gradientUnits="userSpaceOnUse" x1="8042.5" y1="7639.48" x2="8980.35" y2="3655.94">
   <stop offset="0" style="stop-opacity:1; stop-color:#D93DE3"/>
   <stop offset="1" style="stop-opacity:1; stop-color:#FF6DBA"/>
  </linearGradient>
  <linearGradient id="id41" gradientUnits="userSpaceOnUse" x1="8085.12" y1="7791.69" x2="8937.72" y2="3789.98">
   <stop offset="0" style="stop-opacity:1; stop-color:#DD1A8F"/>
   <stop offset="1" style="stop-opacity:1; stop-color:#FE117E"/>
  </linearGradient>
  <linearGradient id="id42" gradientUnits="userSpaceOnUse" x1="7482.16" y1="9204.61" x2="8157.06" y2="9204.61">
   <stop offset="0" style="stop-opacity:1; stop-color:#8879EA"/>
   <stop offset="1" style="stop-opacity:1; stop-color:#9E8CEF"/>
  </linearGradient>
  <linearGradient id="id43" gradientUnits="userSpaceOnUse" x1="11837.43" y1="16248.3" x2="11837.43" y2="16245.22">
   <stop offset="0" style="stop-opacity:1; stop-color:#E1D1ED"/>
   <stop offset="1" style="stop-opacity:1; stop-color:#F0FAFF"/>
  </linearGradient>
  <linearGradient id="id44" gradientUnits="userSpaceOnUse" xlink:href="#id39" x1="1839.78" y1="12358.11" x2="2424.54" y2="11275.46">
  </linearGradient>
  <linearGradient id="id45" gradientUnits="userSpaceOnUse" x1="10355.34" y1="8782.52" x2="10475.93" y2="7028.4">
   <stop offset="0" style="stop-opacity:1; stop-color:#A242EA"/>
   <stop offset="1" style="stop-opacity:1; stop-color:#FE117E"/>
  </linearGradient>
  <linearGradient id="id46" gradientUnits="userSpaceOnUse" xlink:href="#id40" x1="4035.9" y1="6995.97" x2="4035.9" y2="6763.12">
  </linearGradient>
  <linearGradient id="id47" gradientUnits="userSpaceOnUse" xlink:href="#id39" x1="10462.81" y1="7958.57" x2="10718.68" y2="6798.84">
  </linearGradient>
  <linearGradient id="id48" gradientUnits="userSpaceOnUse" x1="9301.4" y1="5258.25" x2="9301.4" y2="2901.68">
   <stop offset="0" style="stop-opacity:1; stop-color:#45FFCD"/>
   <stop offset="1" style="stop-opacity:1; stop-color:#22E0FF"/>
  </linearGradient>
  <linearGradient id="id49" gradientUnits="userSpaceOnUse" x1="1779.64" y1="12868.88" x2="1779.64" y2="10977.63">
   <stop offset="0" style="stop-opacity:1; stop-color:#BE9DEA"/>
   <stop offset="1" style="stop-opacity:1; stop-color:#9E8CEF"/>
  </linearGradient>
  <linearGradient id="id50" gradientUnits="userSpaceOnUse" xlink:href="#id49" x1="6313.02" y1="13124.18" x2="6313.02" y2="9782">
  </linearGradient>
  <linearGradient id="id51" gradientUnits="userSpaceOnUse" xlink:href="#id49" x1="3632.09" y1="4142.26" x2="3632.09" y2="2838.4">
  </linearGradient>
  <linearGradient id="id52" gradientUnits="userSpaceOnUse" xlink:href="#id49" x1="8977.25" y1="4048.68" x2="8977.25" y2="2744.82">
  </linearGradient>
  <linearGradient id="id53" gradientUnits="userSpaceOnUse" x1="8210.37" y1="7511.88" x2="8210.37" y2="3726.86">
   <stop offset="0" style="stop-opacity:1; stop-color:#0665BD"/>
   <stop offset="1" style="stop-opacity:1; stop-color:#1A1F77"/>
  </linearGradient>
  <linearGradient id="id54" gradientUnits="userSpaceOnUse" xlink:href="#id39" x1="6852.51" y1="14959.26" x2="7456.28" y2="12415.91">
  </linearGradient>
  <linearGradient id="id55" gradientUnits="userSpaceOnUse" xlink:href="#id48" x1="3367.28" y1="5021.27" x2="3367.28" y2="3002.44">
  </linearGradient>
  <linearGradient id="id56" gradientUnits="userSpaceOnUse" x1="7539.08" y1="8074.37" x2="7539.08" y2="6640.79">
   <stop offset="0" style="stop-opacity:1; stop-color:#B2CAF2"/>
   <stop offset="1" style="stop-opacity:1; stop-color:#A7A7DD"/>
  </linearGradient>
  <linearGradient id="id57" gradientUnits="userSpaceOnUse" xlink:href="#id41" x1="4103.51" y1="7375.02" x2="4147.37" y2="6757.73">
  </linearGradient>
  <linearGradient id="id58" gradientUnits="userSpaceOnUse" xlink:href="#id53" x1="6467.19" y1="7911.88" x2="6467.19" y2="3096.61">
  </linearGradient>
  <linearGradient id="id59" gradientUnits="userSpaceOnUse" xlink:href="#id56" x1="10261.64" y1="8707.96" x2="10261.64" y2="7053.05">
  </linearGradient>
  <linearGradient id="id60" gradientUnits="userSpaceOnUse" xlink:href="#id39" x1="9202.69" y1="5377.54" x2="9608.62" y2="5374.85">
  </linearGradient>
  <linearGradient id="id61" gradientUnits="userSpaceOnUse" xlink:href="#id39" x1="6129.3" y1="13206.24" x2="6702.05" y2="7922.22">
  </linearGradient>
  <linearGradient id="id62" gradientUnits="userSpaceOnUse" xlink:href="#id48" x1="3360.1" y1="5405.02" x2="3360.1" y2="2995.24">
  </linearGradient>
  <linearGradient id="id63" gradientUnits="userSpaceOnUse" xlink:href="#id39" x1="6113.42" y1="8306.69" x2="6889.63" y2="2489.83">
  </linearGradient>
  <linearGradient id="id64" gradientUnits="userSpaceOnUse" x1="3014.11" y1="3447.38" x2="3689.79" y2="3447.38">
   <stop offset="0" style="stop-opacity:1; stop-color:#F5FCFF"/>
   <stop offset="1" style="stop-opacity:1; stop-color:#E5F6FF"/>
  </linearGradient>
  <linearGradient id="id65" gradientUnits="userSpaceOnUse" xlink:href="#id49" x1="10559.43" y1="8985.65" x2="10559.43" y2="8266.89">
  </linearGradient>
  <linearGradient id="id66" gradientUnits="userSpaceOnUse" xlink:href="#id53" x1="6462.92" y1="6165.9" x2="6462.92" y2="3043.3">
  </linearGradient>
  <linearGradient id="id67" gradientUnits="userSpaceOnUse" xlink:href="#id56" x1="10261.54" y1="8707.96" x2="10261.54" y2="7053.05">
  </linearGradient>
  <linearGradient id="id68" gradientUnits="userSpaceOnUse" xlink:href="#id49" x1="2596.56" y1="7183.83" x2="3148.05" y2="4622.89">
  </linearGradient>
  <linearGradient id="id69" gradientUnits="userSpaceOnUse" xlink:href="#id39" x1="9727.05" y1="8101.88" x2="9763.93" y2="7644.64">
  </linearGradient>
  <linearGradient id="id70" gradientUnits="userSpaceOnUse" xlink:href="#id39" x1="3339.1" y1="11865.93" x2="3583.35" y2="8403.53">
  </linearGradient>
  <linearGradient id="id71" gradientUnits="userSpaceOnUse" xlink:href="#id39" x1="1485.47" y1="12919.92" x2="1838.05" y2="10872.92">
  </linearGradient>
  <linearGradient id="id72" gradientUnits="userSpaceOnUse" xlink:href="#id39" x1="5108.9" y1="14848.38" x2="5635.99" y2="12610.71">
  </linearGradient>
  <linearGradient id="id73" gradientUnits="userSpaceOnUse" xlink:href="#id48" x1="9243.61" y1="4883.77" x2="9243.61" y2="2908.89">
  </linearGradient>
  <linearGradient id="id74" gradientUnits="userSpaceOnUse" x1="8803.02" y1="5143.5" x2="8803.02" y2="2745.01">
   <stop offset="0" style="stop-opacity:1; stop-color:#B9ACF4"/>
   <stop offset="1" style="stop-opacity:1; stop-color:#E1D1F5"/>
  </linearGradient>
  <linearGradient id="id75" gradientUnits="userSpaceOnUse" xlink:href="#id74" x1="3806.26" y1="5237.01" x2="3806.26" y2="2838.52">
  </linearGradient>
  <linearGradient id="id76" gradientUnits="userSpaceOnUse" xlink:href="#id39" x1="9109.28" y1="10030.76" x2="9172.36" y2="8103.64">
  </linearGradient>
  <linearGradient id="id77" gradientUnits="userSpaceOnUse" x1="10261.5" y1="8707.94" x2="10261.5" y2="7053.07">
   <stop offset="0" style="stop-opacity:1; stop-color:#C6D1F2"/>
   <stop offset="1" style="stop-opacity:1; stop-color:#BAADDD"/>
  </linearGradient>
  <radialGradient id="id78" gradientUnits="userSpaceOnUse" gradientTransform="matrix(1.00001 -0 -0 -0.22253 0 18881)" cx="6324.85" cy="15444.21" r="1438.79" fx="6324.85" fy="15444.21">
   <stop offset="0" style="stop-opacity:1; stop-color:#DECEF4"/>
   <stop offset="0.388235" style="stop-opacity:1; stop-color:#EFDFFA"/>
   <stop offset="1" style="stop-opacity:1; stop-color:white"/>
  </radialGradient>
  <radialGradient id="id79" gradientUnits="userSpaceOnUse" gradientTransform="matrix(1.31069 -0 -0 -1.18176 -1531 11519)" cx="4928.38" cy="5279.81" r="294.25" fx="4928.38" fy="5279.81">
   <stop offset="0" style="stop-opacity:1; stop-color:#45FFCD"/>
   <stop offset="1" style="stop-opacity:1; stop-color:#22E0FF"/>
  </radialGradient>
  <radialGradient id="id80" gradientUnits="userSpaceOnUse" gradientTransform="matrix(8.35821 -0 -0 -8.05986 -62622 51747)" cx="8510.52" cy="5711.66" r="103.84" fx="8510.52" fy="5711.66">
   <stop offset="0" style="stop-opacity:1; stop-color:#E5F6FF"/>
   <stop offset="1" style="stop-opacity:1; stop-color:#EBFBFF"/>
  </radialGradient>
  <radialGradient id="id81" gradientUnits="userSpaceOnUse" gradientTransform="matrix(1.47309 -0 -0 -1.47478 -3023 31370)" xlink:href="#id79" cx="6389.22" cy="12675.9" r="881.99" fx="6389.22" fy="12675.9">
  </radialGradient>
 </defs>
 <g id="Слой_x0020_1">
  <metadata id="CorelCorpID_0Corel-Layer"/>
  <polygon class="fil0" points="11839.51,16248.3 11835.29,16245.26 "/>
  <path class="fil1" d="M6324.87 16071.99c-1558.05,0 -2821.09,-281.11 -2821.09,-627.78 0,-299.72 943.54,-550.4 2205.75,-612.85 79.35,81 150.39,128.92 207.58,131.27 2.08,0.08 4.08,0.14 6.16,0.14 73.8,0 134.96,-54.7 185.31,-144.56 71.31,-1.18 143.52,-1.79 216.29,-1.79 91.66,0 182.34,0.96 271.77,2.83 3.8,6.7 7.61,13.29 11.49,19.58l0 0c48.41,79.33 105.96,125.96 174.58,125.96 2,0 4,-0.08 5.94,-0.14 57.14,-2.43 127.98,-50.01 207.1,-130.38 1234.13,66.95 2150.14,314.65 2150.14,609.94 0,346.67 -1263.04,627.78 -2821.02,627.78z"/>
  <path class="fil2" d="M1526.77 12604.63c733.52,1539.38 7811.98,1315.55 9595.37,119.88 1783.49,-1195.53 -2177.81,-11244.1 -6971.2,-11034.46 -3499.67,153.07 -4506.84,6963.67 -2624.17,10914.58z"/>
  <path class="fil2" d="M11975.97 11895.3c-303.08,-49.45 -492,-1658.83 -133.29,-1969.68 358.8,-310.85 1095.38,398.97 1095.38,938.5 0,539.53 -435.91,1116.94 -962.09,1031.18z"/>
  <path class="fil2" d="M3392.57 1252.06c75.04,226.33 -660.29,709.82 -917.21,522.87 -256.83,-186.98 -106.4,-763.43 125.55,-876.74 231.95,-113.29 683.05,26.22 791.66,353.87z"/>
  <path class="fil3" d="M5923.27 14962.77c-2.08,0 -4.08,-0.06 -6.16,-0.14 -57.19,-2.35 -128.23,-50.27 -207.58,-131.27 -218.5,-222.87 -500.24,-696.13 -730.78,-1159.98 -125.33,-252.19 -235.52,-501.55 -312.22,-706.43 0,0 805.83,196.51 1102.57,450.36 297.42,253.17 356.22,1370.88 356.22,1370.88 -5.47,11.14 -11,21.78 -16.74,32.02 -50.35,89.86 -111.51,144.56 -185.31,144.56z"/>
  <path class="fil4" d="M6782.71 14964.79c-68.62,0 -126.17,-46.63 -174.58,-125.96 4.84,-240.79 42.2,-773.38 262.15,-1153.06 262.83,-455.14 1005.73,-627.37 1146.14,-657.11 -65.92,169.33 -151.96,364.24 -248.88,563.8 -237.52,489.3 -540.14,1006.34 -771.79,1241.81 -79.12,80.37 -149.96,127.95 -207.1,130.38 -1.94,0.06 -3.94,0.14 -5.94,0.14z"/>
  <g style="clip-path:url(#id0)">
   <image x="4534" y="12550.07" width="1855.14" height="2263.24" xlink:href="4_Images\4_ImgID1.png"/>
  </g>
  <g style="clip-path:url(#id1)">
   <image x="4499.41" y="12453.23" width="1882.8" height="831.42" xlink:href="4_Images\4_ImgID2.png"/>
  </g>
  <g style="clip-path:url(#id2)">
   <image x="6325.5" y="12550.07" width="1855.14" height="2311.66" xlink:href="4_Images\4_ImgID3.png"/>
  </g>
  <g style="clip-path:url(#id3)">
   <image x="6325.5" y="12453.23" width="1882.8" height="831.42" xlink:href="4_Images\4_ImgID4.png"/>
  </g>
  <path class="fil5" d="M2013.2 10786.16l0 0c15.92,-44.33 36.65,-87.21 62.94,-129.41 71.23,-114.81 213.03,-271.85 401.18,-449.53 490.4,-464.83 1298.98,-1069.38 2012.82,-1430.5l0.69 0c163.25,-82.94 321.65,-152.88 469.67,-205.45 0,0 5.33,59.71 8.1,161.86l0 0c-2.77,-102.15 -8.1,-161.86 -8.1,-161.86 -148.02,52.57 -306.42,122.51 -469.67,205.45 27.39,-4.08 53.05,-6.1 77.13,-6.1 157.78,0 246.03,85.7 259.25,223.15 -49.04,104.58 -91.65,214.01 -127.49,327.3 -19.7,62.47 -38.39,127.84 -55.96,195.55 -52.9,78.23 -117.37,159.23 -193.66,240.93 -450.16,482.04 -1409.36,752.56 -1771.98,752.56 -45.84,0 -82.19,-4.35 -106.74,-13.15 -204.05,-73.32 -107.9,-264.92 -94.06,-289.74 -188.15,177.68 -329.95,334.72 -401.18,449.53 -26.29,42.2 -47.02,85.08 -62.94,129.41l0 0z"/>
  <g style="clip-path:url(#id4)">
   <image x="1981.63" y="8552.05" width="3010.27" height="3190.11" xlink:href="4_Images\4_ImgID5.png"/>
  </g>
  <g style="clip-path:url(#id5)">
   <image x="1898.63" y="10557.97" width="852.17" height="1267.19" xlink:href="4_Images\4_ImgID6.png"/>
  </g>
  <path class="fil6" d="M1098.21 12868.94c-2.51,0 -5,0 -7.45,-0.14 40.69,-5.94 80.43,-13.63 119.27,-23.04 -39.92,14.94 -77.45,23.18 -111.82,23.18zm-7.45 -0.14l0 0c-256.58,-9.14 -275.6,-110.53 -275.6,-110.53 83.06,-380.43 219.66,-703.11 377.79,-966.92 231.62,-386.46 509.42,-646.4 732.78,-776.23l0 0c110.75,-64.39 208.1,-96.84 279.8,-96.84 12.51,0 24.23,0.98 35.1,2.98 177.13,32.09 242.05,170.09 238.3,344.81 -0.04,-0.14 -0.08,-0.28 -0.14,-0.41 -41.05,-150.8 -102.66,-288.03 -234.75,-288.03 -48.73,0 -107.06,18.68 -177.51,62.25 -164.85,102.02 -292.83,456.38 -366.73,713.13 -27.25,86.47 -52.12,181.17 -71.27,282.29 -90.47,166.64 -537.77,833.5 -537.77,833.5z"/>
  <path class="fil7" d="M1090.76 12868.8l0 0c0,0 447.3,-666.86 537.77,-833.5 -8.28,43.64 -15.45,88.41 -21.31,134.33 0,0 107.42,245.75 243.81,284.56 0,0 -114.78,-805.19 86.51,-1231.63 0,0 -135.84,207.86 -237.74,530.45 73.9,-256.75 201.88,-611.11 366.73,-713.13 70.45,-43.57 128.78,-62.25 177.51,-62.25 132.09,0 193.7,137.23 234.75,288.03 0.06,0.13 0.1,0.27 0.14,0.41 20,74.84 -23.72,284.56 -134.95,529.22l0 0c-142.18,312.63 -394.62,682.29 -765.25,900.24 -112.02,65.84 -234.88,117.86 -368.7,150.23 -38.84,9.41 -78.58,17.1 -119.27,23.04l0 0z"/>
  <g style="clip-path:url(#id6)">
   <image x="1594.28" y="11720.03" width="125.89" height="340.31" xlink:href="4_Images\4_ImgID7.png"/>
  </g>
  <g style="clip-path:url(#id7)">
   <image x="1580.44" y="11187.42" width="388.73" height="1301.78" xlink:href="4_Images\4_ImgID8.png"/>
  </g>
  <path class="fil8" d="M2050.53 11090.64c0,0 276.88,-193.52 428.26,175.02 0,0 -51.7,603.43 -388.83,1211.51 0,0 -172.42,49.09 -238.93,-22.98 -147.94,-160.25 -104.54,-1151.59 199.5,-1363.55z"/>
  <path class="fil9" d="M8048.65 11666.57c-1.8,-66.34 -7.06,-133.37 -15.84,-200.53 -66.47,-770.48 -596.51,-1589.53 -1520.15,-1676.69 -52.21,-4.9 -104.01,-7.33 -155.56,-7.33 -835.84,0 -1567.11,638.51 -1743.36,1568.57 -169.19,-1072.27 226.27,-2383.58 226.27,-2383.58l-0.63 1.09c-54.15,112.33 -100.91,230.35 -139.66,352.97 -159.64,505.16 -249.56,1198.59 -249.83,1823.32 0.13,-230.41 12.45,-470.15 35.9,-706.35l0 0c32.29,-325.11 85.84,-643.35 157.97,-921.42 17.57,-67.71 36.26,-133.08 55.96,-195.55 35.84,-113.29 78.45,-222.72 127.49,-327.3 4.02,-8.59 8.1,-17.1 12.17,-25.67l0.63 -1.09c39.22,-81.22 82.04,-159.45 128.59,-233.88l0 0c11.6,-18.66 23.5,-37.08 35.62,-55.27l0.55 -1.1c119.31,-179.7 259.52,-335.95 415.99,-460.94l0 0c-156.47,124.99 -296.68,281.24 -415.99,460.94l-0.55 1.1c-4.57,20 -94.01,179.01 495.04,232.76 84.04,7.68 175.69,11.43 272.19,11.43 629.1,0 1464.05,-158.35 1733.59,-413.17 66.14,284.64 275.66,1080.44 627.86,1469.66 50.16,410.87 96.35,1126.63 -84.25,1688.03zm204 -591.69c0.27,-468.06 -56.73,-954.21 -167.61,-1414.52 2.14,11.35 5.61,30.23 9.96,55.88 -4.57,-19.22 -9.41,-39.22 -14.47,-59.77 1.47,1.18 2.92,2.36 4.38,3.53 0.05,0.08 0.05,0.08 0.13,0.08l0 0.28c110.88,460.31 167.88,946.46 167.61,1414.52zm-626.55 -2547.04c-0.69,-0.84 -1.39,-1.66 -2.08,-2.49 0,0 -28.76,-35.9 -70.76,-71.6 2.07,-3.04 4.07,-6 6.09,-9.12 -103.21,-120.5 -223.83,-226.81 -361.77,-313.42l0 0c137.94,86.61 258.56,192.92 361.77,313.42 23.1,27.04 45.38,54.84 66.75,83.21z"/>
  <g style="clip-path:url(#id8)">
   <image x="4416.41" y="8932.48" width="3861.06" height="4303.75" xlink:href="4_Images\4_ImgID9.png"/>
  </g>
  <path class="fil10" d="M4594.8 11860.85c-18.19,-129.13 -18.27,-265.54 2,-407.96 4.91,-34.43 10.59,-68.61 16.94,-102.3 176.25,-930.06 907.52,-1568.57 1743.36,-1568.57 51.55,0 103.35,2.43 155.56,7.33 923.64,87.16 1453.68,906.21 1520.15,1676.69 -97.17,-744.13 -621.63,-1506.32 -1510.74,-1590.22 -52.21,-4.9 -104.03,-7.33 -155.56,-7.33 -866.21,0 -1620.08,685.68 -1760.37,1670.86 -15.77,110.96 -19.24,218.37 -11.34,321.5z"/>
  <path class="fil11" d="M6358.84 13210.63c-16.25,0 -32.52,-0.14 -48.7,-0.47l0 0c-0.27,0 -0.63,0 -0.96,0l0 0c-929.58,-18.61 -1654.14,-559.53 -1714.38,-1349.31 -7.9,-103.13 -4.43,-210.54 11.34,-321.5 140.29,-985.18 894.16,-1670.86 1760.37,-1670.86 51.53,0 103.35,2.43 155.56,7.33 889.11,83.9 1413.57,846.09 1510.74,1590.22 8.78,67.16 14.04,134.19 15.84,200.53 0.77,27.39 0.9,54.78 0.41,81.89 -13.96,794.68 -576.53,1420.68 -1587.71,1460.17l0 0c-19.16,0.77 -38.61,1.32 -58.11,1.67 -1.73,0 -3.38,0 -5.12,0.06l0 0c-13,0.21 -26.08,0.27 -39.28,0.27zm-685.76 -765.36c-211.38,0 -381.48,44.27 -478.16,157.09 0,0 240.29,418.42 1135.14,421.87 2.9,0 5.88,0 8.79,0 888.48,0 1249.82,-529.44 1249.82,-529.44 0,0 -244.17,159.23 -625.49,159.23 -114.55,0 -241.35,-14.39 -377.68,-51.66 -326.48,-89.37 -651.01,-157.09 -912.42,-157.09zm228.27 -1384.29c238.78,0 505.98,0.62 783.84,27.74 745.09,72.69 928.32,299.7 1085.39,299.78 15.65,0 31.06,-2.28 46.77,-7.2 172.85,-54.02 -100.22,-1287.66 -1324.67,-1371.37 -55.47,-3.8 -109.15,-5.59 -161.03,-5.59 -1094.34,0 -1411.9,805.68 -1369.98,872.64 115.31,184 465.03,184 921.84,184 5.94,0 11.88,0 17.84,0z"/>
  <g style="clip-path:url(#id9)">
   <image x="4886.76" y="8102.44" width="2692.09" height="852.17" xlink:href="4_Images\4_ImgID10.png"/>
  </g>
  <path class="fil12" d="M7143.23 9022.89c-54.45,17.98 -57.08,456.79 0,527.49 56.98,70.68 148.43,48.9 178.86,-54.37 30.51,-103.33 -96.55,-500.3 -178.86,-473.12z"/>
  <path class="fil12" d="M7243.72 9667.28c-45.37,10.78 -50.55,119.66 -29.67,157.7 20.96,38.04 99.88,29.88 112.68,-16.32 12.79,-46.21 -37.29,-152.24 -83.01,-141.38z"/>
  <g style="clip-path:url(#id10)">
   <image x="5163.44" y="12418.64" width="2450" height="637.75" xlink:href="4_Images\4_ImgID11.png"/>
  </g>
  <g style="clip-path:url(#id11)">
   <image x="4886.76" y="9976.95" width="3127.86" height="1433.2" xlink:href="4_Images\4_ImgID12.png"/>
  </g>
  <path class="fil13" d="M8157.04 10004.34c-8.1,-8.37 -16.12,-17.01 -24.14,-25.8 -352.2,-389.22 -561.72,-1185.02 -627.86,-1469.66 -15.27,-65.64 -22.88,-104.09 -22.88,-104.09 25.73,13.27 50.08,31.12 71.1,48.96 42,35.7 70.76,71.6 70.76,71.6 0.69,0.83 1.39,1.65 2.08,2.49 12.66,15.42 25.17,31.81 37.41,49.04 15.78,325.52 161.03,871.19 417.02,1079.59 5.06,20.55 9.9,40.55 14.47,59.77 40.75,171.21 62.04,288.1 62.04,288.1z"/>
  <path class="fil14" d="M8682.87 3609.02c-25.94,-2.21 -52.08,-3.86 -78.24,-5.03 -136.05,-164.57 -283.87,-317.7 -442.47,-455.15 121.46,-93.72 488.34,-351.02 919.4,-403.81 0,0 -301.5,323.03 -398.69,863.99zm398.69 -863.99l0 0z"/>
  <path class="fil15" d="M8798.31 3621.91c-38.17,-5.42 -76.64,-9.69 -115.44,-12.89 97.19,-540.96 398.69,-863.99 398.69,-863.99l0 0c0.84,-0.13 1.67,-0.21 2.49,-0.21 60.33,0 211.19,293.01 217.13,304.63 -111.92,-108.11 -196.17,-147.76 -196.17,-147.76 -207.23,231.45 -282.89,504.46 -306.7,720.22z"/>
  <path class="fil16" d="M9791.32 4051.66c-185.99,-149.35 -398.69,-266.94 -629.86,-344.27 46.68,-107.97 86.6,-240.99 139.94,-274.26 53.52,-33.41 129.76,-40.75 186.05,-40.75 43.8,0 75.54,4.38 75.54,4.38l-76.42 -124.45c0,0 -118.71,-147.11 -289.43,-147.11 -22.68,0 -46.27,2.62 -70.68,8.49 -133.51,32.23 -186.9,314.1 -174.99,515.67 -50.43,-11 -101.41,-20.2 -153.16,-27.45 23.81,-215.76 99.47,-488.77 306.7,-720.22 0,0 84.25,39.65 196.17,147.76 152.45,147.25 356.16,421.38 468.28,894.86 8.65,36.37 15.92,72.27 21.86,107.35z"/>
  <path class="fil17" d="M8561.28 2928.95c-79.98,43.17 -73.54,129.35 91.98,107.78 165.46,-21.59 255.52,-151.21 237.54,-176.47 -18.06,-25.23 -239.81,20.28 -329.52,68.69z"/>
  <path class="fil18" d="M3945.49 3836.06c-66.25,-620.89 -417.77,-997.52 -417.77,-997.52 485.85,59.49 890.15,378.71 953.42,430.87 -193.25,169.6 -373.36,360.44 -535.65,566.65zm-417.77 -997.52l0 0z"/>
  <path class="fil19" d="M3815.95 4009.33c14.86,-186.29 13.21,-651.32 -311.68,-1014.11 0,0 -84.23,39.71 -196.15,147.82 5.63,-11.08 156.72,-304.7 217.11,-304.7 0.88,0 1.73,0.06 2.49,0.2l0 0c0,0 351.52,376.63 417.77,997.52 -44.6,56.7 -87.7,114.25 -129.54,173.27z"/>
  <path class="fil20" d="M3172.52 5369.07c-117.7,-134 -498.03,-633.26 -332.68,-1331.26 46.27,-195.4 108.16,-356.85 175.6,-489.43 -0.47,1.02 -0.9,2.06 -1.33,3.1 0,0 59.33,-67.29 190.6,-67.29 21.3,0 44.47,1.78 69.63,5.94 171.48,28.02 273.77,364.46 362.65,364.46 4.51,0 8.94,-0.83 13.3,-2.63 92.19,-37.08 24.62,-635.8 -218.94,-811.78 0,0 -202.56,172.92 -335.85,367.15 72.82,-115.1 147.39,-201.27 212.62,-264.29 111.92,-108.11 196.15,-147.82 196.15,-147.82 324.89,362.79 326.54,827.82 311.68,1014.11 -294.05,413.77 -518.38,879.97 -643.43,1359.74z"/>
  <path class="fil21" d="M4048.02 3022.48c79.96,43.15 73.58,129.4 -91.94,107.76 -165.52,-21.59 -255.5,-151.21 -237.52,-176.45 17.98,-25.17 239.81,20.26 329.46,68.69z"/>
  <path class="fil22" d="M5910.76 8231.85c-165.66,0 -329.6,-5.25 -490,-16.03l0 0c-1019.36,-68.49 -1894.22,-359.84 -2146.42,-941.62 0,0 163.8,323.85 487.45,515.67 0,0 56.98,-61.76 348.54,-237.39 500.51,244.51 1237.17,359.33 1995.97,359.4 420.21,0 847.05,-35.21 1244.79,-103.07 109.48,131.09 195.54,222.05 225.83,253.44 -123.82,25.75 -250.73,48.84 -379.34,68.96l0 0c-419.16,65.59 -858.66,100.64 -1286.82,100.64zm1987.86 -244.44c181.72,-56.64 376.5,-122.98 471.12,-155.62 9.9,0.61 19.78,1.23 29.74,1.78 -156.6,56.8 -324.75,108.33 -500.86,153.84zm-4624.28 -713.21l0 0c-258.76,-596.92 -269.09,-1263.25 -101.82,-1905.13 125.05,-479.77 349.38,-945.97 643.43,-1359.74 41.84,-59.02 84.94,-116.57 129.54,-173.27 162.29,-206.21 342.4,-397.05 535.65,-566.65 524.73,-460.32 1148.51,-765.92 1789.51,-808.66 53.94,-3.61 107.41,-5.33 160.47,-5.33 67.72,0 134.54,2.84 200.74,8.5 577.84,49.12 1094.74,307.6 1530.3,684.92 158.6,137.45 306.42,290.58 442.47,455.15 -30.9,-1.32 -61.95,-2.08 -93.23,-2.08 -207.64,0 -408.1,30.98 -596.94,88.46 -435.77,-358.57 -963.67,-593.74 -1563.93,-593.74 -37.55,0 -74.98,0.88 -113.09,2.76 -2175.19,106.24 -3297.74,2755.72 -2689.46,3959.15 11.41,22.55 24.07,44.68 37.84,66.33l-311.48 149.33z"/>
  <path class="fil23" d="M6106.3 7911.88c-758.8,-0.07 -1495.46,-114.89 -1995.97,-359.4 24.21,-14.6 50.15,-30.03 77.68,-46.21 241,-141.66 493.81,-309.19 529.77,-370.48 24.49,-66.39 -190.48,-84.31 -430.3,-84.31 -283.11,0 -600.82,24.96 -600.82,24.96l-100.84 48.43c-13.77,-21.65 -26.43,-43.78 -37.84,-66.33 -608.28,-1203.43 514.27,-3852.91 2689.46,-3959.15 38.11,-1.88 75.54,-2.76 113.09,-2.76 600.26,0 1128.16,235.17 1563.93,593.74 -76.15,23.18 -150.45,50.71 -222.58,82.32 -362.24,-270.66 -811.64,-487.24 -1294.59,-487.24 -13.9,0 -27.74,0.13 -41.7,0.49 -1256.82,32.64 -2000.88,809.91 -2044.05,1069.16 -34.37,205.91 224.11,253.72 684.51,253.72 207.38,0 455.55,-9.69 736.52,-19.02 20.69,-0.63 41.37,-0.98 62.04,-0.98 297.22,0 594.17,68.97 881.44,154.19 -134.68,272.79 -210.35,579.84 -210.35,904.67 0,23.92 0.42,47.86 1.18,71.59 -0.76,23.72 -1.18,47.59 -1.18,71.53 0,303.85 66.2,592.21 185.04,851.46 95.58,300.15 275.85,600.33 453.06,847.76 -194.5,-10.87 -427.97,-40.47 -705.74,-101.33 -318.54,-69.81 -638.16,-106.31 -902.19,-106.31 -341.36,0 -589.88,60.86 -623.98,189.24 -51.33,193.47 305.03,386.93 1176.24,386.93 103.6,0 214.35,-2.7 332.64,-8.51 390.18,-19.09 691.27,-56.37 920.57,-101.54 17.02,20.96 33.63,41.02 49.75,60.31 -397.74,67.86 -824.58,103.07 -1244.79,103.07zm-2206.51 -2506.91c-68.14,0 -170.86,263.87 -222.52,658.84 -55.22,421.24 -8.46,734.99 -8.46,734.99 55.55,140.55 133.92,183.29 208.84,183.29 116.19,0 223.84,-102.92 223.84,-102.92 0,0 -60.81,-297.01 -91.8,-613.33 -39.77,-406.5 -29.34,-819.03 -96.71,-857.29 -4.21,-2.41 -8.64,-3.58 -13.19,-3.58z"/>
  <path class="fil24" d="M6971.06 2744.82c-45.23,54.03 480.79,282.42 551.08,250.4 70.19,-32.1 -399.81,-430.87 -551.08,-250.4z"/>
  <g style="clip-path:url(#id12)">
   <image x="4092.09" y="3206.22" width="3724.03" height="1631.96" xlink:href="4_Images\4_ImgID13.png"/>
  </g>
  <g style="clip-path:url(#id13)">
   <image x="4718.68" y="7235.75" width="2706.73" height="677.79" xlink:href="4_Images\4_ImgID14.png"/>
  </g>
  <g style="clip-path:url(#id14)">
   <image x="3555.08" y="5216.21" width="620.86" height="1875.29" xlink:href="4_Images\4_ImgID15.png"/>
  </g>
  <g style="clip-path:url(#id15)">
   <image x="3240.52" y="7085.65" width="900.59" height="741.5" xlink:href="4_Images\4_ImgID16.png"/>
  </g>
  <g style="clip-path:url(#id16)">
   <image x="3558.7" y="7023.39" width="1218.77" height="554.74" xlink:href="4_Images\4_ImgID17.png"/>
  </g>
  <path class="fil25" d="M2933.05 4592.29c0,0 279.78,180.05 96.33,597.08 0,0 -1307.13,711.87 -1231.48,1487.61 63.13,647.37 1869.13,333.89 1869.13,333.89l64.8 216.1c0,0 -1534.18,300.18 -2063.56,-60.53 0,0 -180.07,-427.62 266.46,-1198.24 446.6,-770.68 998.32,-1375.91 998.32,-1375.91z"/>
  <path class="fil26" d="M3438.41 6950.9c-164.52,186.15 184.68,389.85 471.81,421.12 322.2,35.06 894.44,-92.43 859.85,-416.89 -34.64,-324.56 -945.83,-440.61 -1331.66,-4.23z"/>
  <path class="fil27" d="M3460.19 6985.15c-9.8,53.04 1140.28,65.84 1167.32,-137.45 27.06,-203.28 -1091.71,-273.09 -1167.32,137.45z"/>
  <g style="clip-path:url(#id17)">
   <image x="8919.37" y="3101.46" width="672.33" height="637.75" xlink:href="4_Images\4_ImgID18.png"/>
  </g>
  <path class="fil28" d="M7588.67 8074.37c0,0 -4.08,-4.16 -11.75,-12.12 109.84,-22.82 217.05,-47.72 321.7,-74.84 -119.86,37.43 -234.07,70.57 -309.95,86.96z"/>
  <g style="clip-path:url(#id18)">
   <image x="7321.54" y="7687.42" width="1073.52" height="402.57" xlink:href="4_Images\4_ImgID19.png"/>
  </g>
  <g style="clip-path:url(#id19)">
   <image x="6629.84" y="6608.38" width="1198.02" height="1232.61" xlink:href="4_Images\4_ImgID20.png"/>
  </g>
  <g style="clip-path:url(#id20)">
   <image x="7003.81" y="7432.32" width="727.73" height="380.81" xlink:href="4_Images\4_ImgID21.png"/>
  </g>
  <path class="fil29" d="M3015.44 3548.38c20.24,-46.9 48.14,-94.57 80.06,-141.05 -27.1,42.9 -54.02,89.86 -80.06,141.05z"/>
  <g style="clip-path:url(#id21)">
   <image x="2991.51" y="3004.63" width="789.92" height="872.92" xlink:href="4_Images\4_ImgID22.png"/>
  </g>
  <path class="fil30" d="M2682.1 5012.08c0,0 -625.02,725.93 -585.41,776.36 39.63,50.35 624.8,-703.05 585.41,-776.36z"/>
  <path class="fil31" d="M4353.73 5258.25c0,0 575.22,-85.43 1135.85,85.35 83.62,25.52 -174.72,-276.88 -567.88,-331.52 -393.25,-54.65 -594.18,110.11 -567.97,246.17z"/>
  <path class="fil32" d="M5729.87 6477.72c98.29,-297.29 471.8,-284.15 548.17,-17.44 81.28,283.52 -246.71,609.87 -395.3,558.34 -148.5,-51.61 -225.5,-321.28 -152.87,-540.9z"/>
  <path class="fil33" d="M8511.4 7351.12c-0.08,0 -0.14,0 -0.27,0 10.72,0 21.43,-0.06 32.09,-0.28 -10.58,0.22 -21.17,0.28 -31.82,0.28zm32.78 -0.28c0.22,0 0.36,-0.06 0.49,-0.06 -0.13,0 -0.27,0 -0.49,0.06zm-1734.62 -1629.57c0,-0.63 0,-1.31 -0.08,-2 0,-0.55 0.08,-1.04 0.08,-1.59 0,1.24 0,2.41 0,3.59z"/>
  <path class="fil34" d="M10211.6 5754.46c0.41,-14.72 0.63,-29.52 0.63,-44.39 0,-5.82 -0.08,-11.56 -0.16,-17.37 0.49,8.79 0.98,17.71 1.32,26.57 -0.48,11.76 -1.1,23.51 -1.79,35.19z"/>
  <path class="fil35" d="M8511.4 7836.63c-37.57,0 -74.84,-1.04 -111.92,-3.06 -9.96,-0.55 -19.84,-1.17 -29.74,-1.78 -195.82,-13.43 -384.24,-54.45 -561.04,-119.12 -49.59,-18.11 -98.15,-38.03 -145.88,-59.84 -99.8,-45.56 -195.33,-98.9 -285.73,-159.29 -314.45,-209.85 -567.4,-504.53 -726.35,-851.28 -118.84,-259.25 -185.04,-547.61 -185.04,-851.46 0,-23.94 0.42,-47.81 1.18,-71.53 37.7,1096.75 938.64,1974.17 2044.52,1974.17 1105.97,0 2006.9,-877.42 2044.6,-1974.17 0.82,23.72 1.24,47.59 1.24,71.53 0,414.87 -123.47,800.83 -335.76,1123.31 -27.66,42.12 -56.92,83.14 -87.62,123.06l-30.45 -35.16 -616.98 517.89c0,0 15.08,16.53 42.53,46 0,0.05 0,0.05 0,0.05 -299.72,172.25 -647.08,270.68 -1017.56,270.68zm1701.99 -2117.36c-0.34,-8.86 -0.83,-17.78 -1.32,-26.57 -9.66,-898.3 -767.64,-1623.61 -1701.22,-1623.61 -939.61,0 -1701.29,734.64 -1701.29,1640.98 0,2.55 0,5.04 0,7.61 0,0.55 -0.08,1.04 -0.08,1.59 -0.96,-23.8 -1.45,-47.59 -1.45,-71.59 0,-940.79 762.66,-1703.37 1703.37,-1703.37 940.77,0 1703.46,762.58 1703.46,1703.37 0,24 -0.49,47.79 -1.47,71.59z"/>
  <path class="fil36" d="M8511.4 7693.44c-1105.88,0 -2006.82,-877.42 -2044.52,-1974.17 -0.76,-23.73 -1.18,-47.67 -1.18,-71.59 0,-324.83 75.67,-631.88 210.35,-904.67 213.03,-431.34 573.63,-776.78 1015.83,-970.32 72.13,-31.61 146.43,-59.14 222.58,-82.32 188.84,-57.48 389.3,-88.46 596.94,-88.46 31.28,0 62.33,0.76 93.23,2.08 26.16,1.17 52.3,2.82 78.24,5.03 38.8,3.2 77.27,7.47 115.44,12.89 51.75,7.25 102.73,16.45 153.16,27.45 71.44,15.62 141.58,35.07 209.99,58.03 231.17,77.33 443.87,194.92 629.86,344.27 467.04,374.97 765.92,950.52 765.92,1596.02 0,23.92 -0.42,47.86 -1.24,71.59 -37.7,1096.75 -938.63,1974.17 -2044.6,1974.17zm-0.27 -342.32c0.13,0 0.19,0 0.27,0 10.65,0 21.24,-0.06 31.82,-0.28 0.28,0 0.69,0 0.96,0 0.22,-0.06 0.36,-0.06 0.49,-0.06 908.76,-17.09 1642.85,-721.31 1666.93,-1596.32 0.69,-11.68 1.31,-23.43 1.79,-35.19 0.98,-23.8 1.47,-47.59 1.47,-71.59 0,-940.79 -762.69,-1703.37 -1703.46,-1703.37 -940.71,0 -1703.37,762.58 -1703.37,1703.37 0,24 0.49,47.79 1.45,71.59 0.08,0.69 0.08,1.37 0.08,2 6.29,901.15 765.56,1629.85 1701.29,1629.85 0.14,0 0.14,0 0.28,0z"/>
  <path class="fil37" d="M9201.85 9574.46c-679.04,0 -1281.1,-902.27 -1217.94,-1003.19 45.45,-72.62 229.78,-85.97 359.07,-85.97 67.64,0 120.21,3.66 129.97,4.35 -459.3,-58.1 -601.1,-168.01 -745.66,-168.01 -44,0 -65.29,78.64 -65.23,199.01 -0.06,-120.37 21.23,-199.01 65.23,-199.01 144.56,0 286.36,109.91 745.66,168.01l1.37 0c123.82,15.92 270.47,27.67 446.85,32.51 21.65,0.63 43.3,0.9 64.75,0.9 392.81,0 752.76,-93.17 990.77,-174.5 107.37,-36.53 190.01,-70.49 239.95,-92.28l0 0c-49.94,21.79 -132.58,55.75 -239.95,92.28l1.39 0c133.5,2.76 293.28,848.71 -491.73,1169.72 -95.31,38.94 -190.64,56.18 -284.5,56.18z"/>
  <path class="fil38" d="M10788.76 8821.68c-0.49,-1.59 -15.02,-47.8 -42.82,-113.65 24.13,18.12 48.07,35.69 71.66,52.43l-28.84 61.22z"/>
  <path class="fil39" d="M10907.24 8821.74c-29.19,-19.08 -59.15,-39.57 -89.64,-61.28 -23.59,-16.74 -47.53,-34.31 -71.66,-52.43 -0.08,-0.07 -0.08,-0.07 -0.08,-0.13l0 0.06 0 -0.06c-72.35,-171.49 -234.62,-476.24 -473.4,-476.24 -0.06,0 -0.06,0 -0.14,0 -207.01,-222.94 -398.55,-457.14 -374.83,-538.22 49.94,-170.09 163.86,-315.83 163.86,-315.83 141.66,47.25 906.21,632.35 932.21,652.27l341.85 394.83c-45.18,228.82 -210.49,327.66 -321.99,369.01 -61.22,22.62 -106.18,28.02 -106.18,28.02zm-690.6 -565.46l0 0c-19.35,-18.13 -38.53,-36.11 -57.61,-54.17 19.85,18.06 39.71,35.9 59.2,53.47 -0.47,0.21 -1.02,0.43 -1.59,0.7zm-687.68 -690.38c-27.45,-29.47 -42.53,-46 -42.53,-46l616.98 -517.89 30.45 35.16 12.37 14.31c-0.08,0.06 -0.08,0.14 -0.08,0.14l0.71 1.37c-195.96,213.19 -617.96,512.83 -617.96,512.83 0,0 0,0.08 0.06,0.08z"/>
  <g style="clip-path:url(#id22)">
   <image x="10710.86" y="8683.47" width="56.72" height="56.72" xlink:href="4_Images\4_ImgID23.png"/>
  </g>
  <path class="fil40" d="M10159.03 8202.11c-62.95,-57.14 -127.13,-116.47 -190.5,-176.66 -1.18,-3.81 -3.25,-8.35 -6.22,-13.55 62.39,61.57 128.45,125.68 196.72,190.21z"/>
  <path class="fil41" d="M10994.18 8030.43c0,0 -0.21,-0.2 -0.62,-0.55l-100.92 -116.49 101.54 117.04z"/>
  <path class="fil42" d="M9581.8 7628.34c-18.39,-21.15 -36.04,-41.97 -52.84,-62.39l0 0c15.21,16.34 34.17,36.61 56.5,60.26 -1.23,0.68 -2.41,1.39 -3.66,2.13z"/>
  <g style="clip-path:url(#id23)">
   <image x="9500.39" y="7535.25" width="56.72" height="56.72" xlink:href="4_Images\4_ImgID24.png"/>
  </g>
  <g style="clip-path:url(#id24)">
   <image x="9500.39" y="7023.39" width="1516.2" height="1267.19" xlink:href="4_Images\4_ImgID25.png"/>
  </g>
  <path class="fil43" d="M9969.57 8031.47c0.41,-52.08 -325.3,-356.91 -373.73,-401.24 29.74,32.51 161.85,184.05 127.97,285.05 -19.51,57.74 -64.05,88.66 -112.74,88.66 -39.23,0 -81.13,-20.12 -114.84,-62.39l0 0c-52,-151.27 16.75,-272.38 85.57,-313.21 1.25,-0.74 2.43,-1.45 3.66,-2.13 1.4,-0.77 2.77,-1.45 4.16,-2.14l1.39 1.31 4.83 4.85c44.13,40.39 318.26,296.87 366.47,381.67 2.97,5.2 5.04,9.74 6.22,13.55 0.69,2.29 1.04,4.29 1.04,6.02z"/>
  <path class="fil44" d="M11002.34 7909.67c-0.06,-217.41 -60.17,-545.69 -156.17,-793.72l-0.71 0c6.73,27.45 86.41,427.12 -102.23,427.12 -6.35,0 -13.06,-0.41 -20.06,-1.39 -290.58,-39 -562.41,-461.71 -576.31,-488.69l0 0 -0.71 -1.37c0,0 0,-0.08 0.08,-0.14 1.86,-3.74 29.61,-58.59 84.74,-118.49 67.16,-72.97 175,-153.56 326.13,-158.05 1.25,0 2.57,-0.08 3.8,-0.08 109.84,0 208.68,145.55 284.56,341.09l0.71 0c96,248.03 156.11,576.31 156.17,793.72z"/>
  <g style="clip-path:url(#id25)">
   <image x="7639.72" y="8233.87" width="3176.28" height="1834.38" xlink:href="4_Images\4_ImgID26.png"/>
  </g>
  <g style="clip-path:url(#id26)">
   <image x="10143.67" y="8233.87" width="672.33" height="789.92" xlink:href="4_Images\4_ImgID27.png"/>
  </g>
  <g style="clip-path:url(#id27)">
   <image x="10199.01" y="8199.28" width="568.58" height="540.91" xlink:href="4_Images\4_ImgID28.png"/>
  </g>
  <g style="clip-path:url(#id28)">
   <image x="10199.01" y="8199.28" width="568.58" height="540.91" xlink:href="4_Images\4_ImgID29.png"/>
  </g>
  <g style="clip-path:url(#id29)">
   <image x="9465.81" y="7604.42" width="540.91" height="520.16" xlink:href="4_Images\4_ImgID30.png"/>
  </g>
  <g style="clip-path:url(#id30)">
   <image x="10116" y="7023.39" width="914.43" height="1032.01" xlink:href="4_Images\4_ImgID31.png"/>
  </g>
  <path class="fil12" d="M1937.54 11539.57c0,0 -99.67,141.03 -76.98,354.07 0,0 105.06,-141.45 76.98,-354.07z"/>
  <path class="fil12" d="M1182.11 12445.27c0,0 19.67,-161.65 157.31,-273.07 0,0 -65.55,231.64 -157.31,273.07z"/>
  <path class="fil12" d="M2899.02 10043.21c-21.73,-36.51 397.12,-437.36 516.39,-451.68 119.21,-14.25 -41,41.43 -141.07,190.49 -100.12,149.07 -336.01,327.46 -375.32,261.19z"/>
  <path class="fil12" d="M3528.05 9505.2c-43.37,-49.58 190.1,-137.64 190.1,-137.64 0,0 -144.23,190.02 -190.1,137.64z"/>
  <path class="fil12" d="M8511.4 8775.6c-16.19,96.15 473.12,96.15 464.34,0 -8.73,-96.07 -448.08,-96.07 -464.34,0z"/>
  <path class="fil12" d="M5301.23 13726.3c-65.09,30.22 55.2,359.75 144.92,352.83 89.78,-6.84 -69.04,-388.1 -144.92,-352.83z"/>
  <path class="fil45" d="M9755.64 6811.12c14.23,-141.25 22.54,-277.03 25.64,-407.21 -0.55,165.25 -10.57,302.82 -21.1,402.36 -1.51,1.59 -3.03,3.26 -4.54,4.85z"/>
  <g style="clip-path:url(#id31)">
   <image x="6775.1" y="4069.84" width="3031.02" height="3307.7" xlink:href="4_Images\4_ImgID32.png"/>
  </g>
  <g style="clip-path:url(#id32)">
   <image x="9085.37" y="4166.68" width="1149.6" height="2664.42" xlink:href="4_Images\4_ImgID33.png"/>
  </g>
  <g style="clip-path:url(#id33)">
   <image x="7487.55" y="5058.97" width="1716.8" height="1073.52" xlink:href="4_Images\4_ImgID34.png"/>
  </g>
  <g style="clip-path:url(#id34)">
   <image x="6775.1" y="4035.26" width="3459.88" height="1716.8" xlink:href="4_Images\4_ImgID35.png"/>
  </g>
  <g style="clip-path:url(#id35)">
   <image x="6775.1" y="5695.33" width="3459.88" height="1682.21" xlink:href="4_Images\4_ImgID36.png"/>
  </g>
  <g style="clip-path:url(#id36)">
   <image x="6961.86" y="4166.68" width="2657.51" height="1433.2" xlink:href="4_Images\4_ImgID37.png"/>
  </g>
  <g style="clip-path:url(#id37)">
   <image x="9216.8" y="4367.27" width="872.92" height="866.01" xlink:href="4_Images\4_ImgID38.png"/>
  </g>
  <g style="clip-path:url(#id38)">
   <image x="7487.55" y="4450.28" width="1536.95" height="1135.77" xlink:href="4_Images\4_ImgID39.png"/>
  </g>
 </g>
</svg>
